<svg width="325" height="86" viewBox="0 0 325 86" fill="none" xmlns="http://www.w3.org/2000/svg">
<path d="M115.59 64.5106C114.526 64.5106 113.652 64.1851 112.969 63.534C112.323 62.8447 112 62.0021 112 61.0064V27.8021C112 26.8064 112.323 25.983 112.969 25.3319C113.652 24.6426 114.488 24.2979 115.476 24.2979H133.995C134.983 24.2979 135.8 24.6234 136.445 25.2745C137.129 25.8872 137.471 26.6915 137.471 27.6872C137.471 28.5298 137.129 29.2766 136.445 29.9277C135.8 30.5787 134.983 30.9043 133.995 30.9043H118.61L119.123 30.2149V41.7617L118.724 41.0149H131.431C132.419 41.0149 133.235 41.3404 133.881 41.9915C134.565 42.6043 134.907 43.4085 134.907 44.4043C134.907 45.2468 134.565 45.9936 133.881 46.6447C133.235 47.2957 132.419 47.6213 131.431 47.6213H118.61L119.123 47.1043V61.0064C119.123 62.0021 118.762 62.8447 118.04 63.534C117.356 64.1851 116.54 64.5106 115.59 64.5106Z" fill="white"/>
<path d="M146.345 64.5106C145.357 64.5106 144.541 64.1851 143.895 63.534C143.249 62.8447 142.926 62.0021 142.926 61.0064V37.2809C142.926 36.2851 143.249 35.4617 143.895 34.8106C144.541 34.1213 145.357 33.7766 146.345 33.7766C147.333 33.7766 148.15 34.1213 148.795 34.8106C149.441 35.4617 149.764 36.2851 149.764 37.2809V42.6808L149.365 38.8319C149.783 37.9128 150.315 37.1085 150.961 36.4191C151.644 35.6915 152.404 35.0979 153.24 34.6383C154.076 34.1404 154.968 33.7766 155.918 33.5468C156.868 33.317 157.817 33.2021 158.767 33.2021C159.907 33.2021 160.857 33.5277 161.616 34.1787C162.414 34.8298 162.813 35.5957 162.813 36.4766C162.813 37.7404 162.49 38.6596 161.844 39.234C161.198 39.7702 160.496 40.0383 159.736 40.0383C159.014 40.0383 158.349 39.9043 157.741 39.6362C157.172 39.3681 156.507 39.234 155.747 39.234C155.063 39.234 154.361 39.4064 153.639 39.7511C152.955 40.0574 152.309 40.5553 151.701 41.2447C151.132 41.934 150.657 42.7957 150.277 43.8298C149.935 44.8255 149.764 46.0128 149.764 47.3915V61.0064C149.764 62.0021 149.441 62.8447 148.795 63.534C148.15 64.1851 147.333 64.5106 146.345 64.5106Z" fill="white"/>
<path d="M174.072 61.0064C174.072 62.0021 173.749 62.8447 173.104 63.534C172.458 64.1851 171.641 64.5106 170.653 64.5106C169.666 64.5106 168.849 64.1851 168.203 63.534C167.557 62.8447 167.234 62.0021 167.234 61.0064V37.2809C167.234 36.2851 167.557 35.4617 168.203 34.8106C168.849 34.1213 169.666 33.7766 170.653 33.7766C171.641 33.7766 172.458 34.1213 173.104 34.8106C173.749 35.4617 174.072 36.2851 174.072 37.2809V61.0064ZM170.596 30.0426C169.305 30.0426 168.393 29.8319 167.861 29.4106C167.329 28.9894 167.063 28.2426 167.063 27.1702V26.0787C167.063 24.9681 167.348 24.2213 167.918 23.8383C168.526 23.417 169.438 23.2064 170.653 23.2064C171.983 23.2064 172.914 23.417 173.445 23.8383C173.977 24.2596 174.243 25.0064 174.243 26.0787V27.1702C174.243 28.2808 173.958 29.0468 173.388 29.4681C172.819 29.8511 171.888 30.0426 170.596 30.0426Z" fill="white"/>
<path d="M195.459 65.0851C192.23 65.0851 189.419 64.4149 187.026 63.0745C184.671 61.6957 182.847 59.8383 181.556 57.5021C180.302 55.166 179.675 52.5234 179.675 49.5745C179.675 46.1277 180.359 43.1979 181.727 40.7851C183.132 38.334 184.955 36.4574 187.197 35.1553C189.438 33.8532 191.812 33.2021 194.32 33.2021C196.257 33.2021 198.08 33.6043 199.79 34.4085C201.537 35.2128 203.076 36.3234 204.405 37.7404C205.735 39.1191 206.78 40.7277 207.539 42.566C208.337 44.4043 208.736 46.3574 208.736 48.4255C208.698 49.3447 208.337 50.0915 207.653 50.666C206.97 51.2404 206.172 51.5277 205.26 51.5277H183.493L181.783 45.783H202.696L201.442 46.9319V45.3809C201.366 44.2702 200.967 43.2745 200.246 42.3936C199.562 41.5128 198.688 40.8234 197.625 40.3255C196.599 39.7894 195.497 39.5213 194.32 39.5213C193.18 39.5213 192.116 39.6745 191.129 39.9809C190.141 40.2872 189.286 40.8043 188.564 41.5319C187.843 42.2596 187.273 43.2362 186.855 44.4617C186.437 45.6872 186.228 47.2383 186.228 49.1149C186.228 51.183 186.646 52.9447 187.482 54.4C188.355 55.817 189.457 56.9085 190.787 57.6745C192.154 58.4021 193.598 58.766 195.117 58.766C196.523 58.766 197.644 58.6511 198.479 58.4213C199.315 58.1915 199.98 57.9234 200.474 57.617C201.005 57.2723 201.48 56.9851 201.898 56.7553C202.582 56.4106 203.228 56.2383 203.836 56.2383C204.671 56.2383 205.355 56.5255 205.887 57.1C206.457 57.6745 206.742 58.3447 206.742 59.1106C206.742 60.1447 206.21 61.083 205.146 61.9255C204.158 62.7681 202.772 63.5149 200.986 64.166C199.201 64.7787 197.359 65.0851 195.459 65.0851Z" fill="white"/>
<path d="M231.007 33.2021C233.818 33.2021 235.946 33.7957 237.389 34.983C238.871 36.1702 239.877 37.7596 240.409 39.7511C240.979 41.7043 241.264 43.8872 241.264 46.3V61.0064C241.264 62.0021 240.941 62.8447 240.295 63.534C239.649 64.1851 238.833 64.5106 237.845 64.5106C236.857 64.5106 236.041 64.1851 235.395 63.534C234.749 62.8447 234.426 62.0021 234.426 61.0064V46.3C234.426 45.0362 234.255 43.9064 233.913 42.9106C233.609 41.8766 233.039 41.0532 232.204 40.4404C231.368 39.8277 230.171 39.5213 228.614 39.5213C227.094 39.5213 225.803 39.8277 224.739 40.4404C223.713 41.0532 222.916 41.8766 222.346 42.9106C221.814 43.9064 221.548 45.0362 221.548 46.3V61.0064C221.548 62.0021 221.225 62.8447 220.579 63.534C219.934 64.1851 219.117 64.5106 218.129 64.5106C217.141 64.5106 216.325 64.1851 215.679 63.534C215.033 62.8447 214.71 62.0021 214.71 61.0064V37.2809C214.71 36.2851 215.033 35.4617 215.679 34.8106C216.325 34.1213 217.141 33.7766 218.129 33.7766C219.117 33.7766 219.934 34.1213 220.579 34.8106C221.225 35.4617 221.548 36.2851 221.548 37.2809V39.7511L220.693 39.5787C221.035 38.9277 221.529 38.2383 222.175 37.5106C222.821 36.7447 223.58 36.0362 224.454 35.3851C225.328 34.734 226.316 34.217 227.417 33.834C228.519 33.4128 229.716 33.2021 231.007 33.2021Z" fill="white"/>
<path d="M273.613 22C274.601 22 275.417 22.3255 276.063 22.9766C276.709 23.6277 277.032 24.4702 277.032 25.5043V61.0064C277.032 62.0021 276.709 62.8447 276.063 63.534C275.417 64.1851 274.601 64.5106 273.613 64.5106C272.625 64.5106 271.808 64.1851 271.163 63.534C270.517 62.8447 270.194 62.0021 270.194 61.0064V58.1915L271.448 58.7085C271.448 59.2064 271.182 59.8191 270.65 60.5468C270.118 61.2362 269.396 61.9255 268.484 62.6149C267.573 63.3043 266.49 63.8979 265.236 64.3957C264.021 64.8553 262.691 65.0851 261.248 65.0851C258.627 65.0851 256.252 64.4149 254.125 63.0745C251.998 61.6957 250.307 59.8191 249.054 57.4447C247.838 55.0319 247.23 52.2745 247.23 49.1723C247.23 46.0319 247.838 43.2745 249.054 40.9C250.307 38.4872 251.979 36.6106 254.068 35.2702C256.157 33.8915 258.475 33.2021 261.02 33.2021C262.653 33.2021 264.154 33.4511 265.521 33.9489C266.889 34.4468 268.067 35.0787 269.054 35.8447C270.08 36.6106 270.859 37.3957 271.391 38.2C271.96 38.966 272.245 39.617 272.245 40.1532L270.194 40.9V25.5043C270.194 24.5085 270.517 23.6851 271.163 23.034C271.808 22.3447 272.625 22 273.613 22ZM262.102 58.766C263.774 58.766 265.236 58.3447 266.49 57.5021C267.744 56.6596 268.712 55.5106 269.396 54.0553C270.118 52.6 270.479 50.9723 270.479 49.1723C270.479 47.334 270.118 45.6872 269.396 44.2319C268.712 42.7766 267.744 41.6277 266.49 40.7851C265.236 39.9426 263.774 39.5213 262.102 39.5213C260.469 39.5213 259.025 39.9426 257.772 40.7851C256.518 41.6277 255.531 42.7766 254.809 44.2319C254.125 45.6872 253.783 47.334 253.783 49.1723C253.783 50.9723 254.125 52.6 254.809 54.0553C255.531 55.5106 256.518 56.6596 257.772 57.5021C259.025 58.3447 260.469 58.766 262.102 58.766Z" fill="white"/>
<path d="M291.843 61.0064C291.843 62.0021 291.501 62.8447 290.817 63.534C290.172 64.1851 289.355 64.5106 288.367 64.5106C287.417 64.5106 286.62 64.1851 285.974 63.534C285.328 62.8447 285.005 62.0021 285.005 61.0064V25.5043C285.005 24.5085 285.328 23.6851 285.974 23.034C286.658 22.3447 287.493 22 288.481 22C289.469 22 290.267 22.3447 290.874 23.034C291.52 23.6851 291.843 24.5085 291.843 25.5043V61.0064Z" fill="white"/>
<path d="M321.581 33.7766C322.569 33.7766 323.386 34.1213 324.031 34.8106C324.677 35.4617 325 36.2851 325 37.2809V61.6957C325 65.2192 324.335 68.0149 323.006 70.083C321.714 72.1894 319.967 73.7021 317.763 74.6213C315.56 75.5404 313.091 76 310.356 76C309.14 76 307.848 75.9043 306.481 75.7128C305.113 75.5213 303.993 75.234 303.119 74.8511C301.979 74.3532 301.181 73.7213 300.726 72.9553C300.308 72.2277 300.232 71.4426 300.498 70.6C300.84 69.4894 301.39 68.7234 302.15 68.3021C302.91 67.9191 303.708 67.8809 304.543 68.1872C305.151 68.3787 305.949 68.666 306.937 69.0489C307.924 69.4702 309.064 69.6809 310.356 69.6809C312.103 69.6809 313.547 69.4319 314.686 68.934C315.864 68.4745 316.738 67.6702 317.307 66.5213C317.915 65.4106 318.219 63.8787 318.219 61.9255V58.0766L319.416 59.4553C318.77 60.7191 317.953 61.7723 316.966 62.6149C316.016 63.4191 314.876 64.0319 313.547 64.4532C312.217 64.8745 310.698 65.0851 308.988 65.0851C306.975 65.0851 305.208 64.6255 303.689 63.7064C302.207 62.7489 301.049 61.4468 300.213 59.8C299.377 58.1149 298.959 56.2 298.959 54.0553V37.2809C298.959 36.2851 299.282 35.4617 299.928 34.8106C300.574 34.1213 301.39 33.7766 302.378 33.7766C303.366 33.7766 304.183 34.1213 304.828 34.8106C305.474 35.4617 305.797 36.2851 305.797 37.2809V51.9872C305.797 54.4766 306.329 56.2383 307.393 57.2723C308.494 58.2681 310.014 58.766 311.951 58.766C313.281 58.766 314.401 58.517 315.313 58.0191C316.225 57.483 316.928 56.717 317.421 55.7213C317.915 54.6872 318.162 53.4426 318.162 51.9872V37.2809C318.162 36.2851 318.485 35.4617 319.131 34.8106C319.777 34.1213 320.593 33.7766 321.581 33.7766Z" fill="white"/>
<path d="M43 0H64.5C76.3741 0 86 9.62588 86 21.5V43H64.5C52.6259 43 43 33.3741 43 21.5V0Z" fill="#BFD62F"/>
<path d="M43 64.5C43 52.6259 52.6259 43 64.5 43H86V64.5C86 76.3741 76.3741 86 64.5 86H43V64.5Z" fill="#00A9A7"/>
<path d="M0 43H21.5C33.3741 43 43 52.6259 43 64.5V86H21.5C9.62588 86 0 76.3741 0 64.5V43Z" fill="#BFD62F"/>
<path d="M0 21.5C0 9.62588 9.62588 0 21.5 0C33.3741 0 43 9.62588 43 21.5C43 33.3741 33.3741 43 21.5 43C9.62588 43 0 33.3741 0 21.5Z" fill="#00A9A7"/>
</svg>
