<svg width="745" height="267" viewBox="0 0 745 267" fill="none" xmlns="http://www.w3.org/2000/svg">
<path d="M140.605 0.840576H112.843C109.488 0.840576 106.588 1.2961 104.22 2.13658C101.782 3.04762 99.7999 4.4976 98.3499 6.40311C96.823 8.31503 95.6809 10.83 94.9945 13.884C94.308 16.8545 94 20.518 94 24.7139V39.8168C94 44.0897 94.308 47.7468 94.9945 50.8007C95.6809 53.7712 96.823 56.2927 98.3499 58.2752C99.8769 60.1807 101.859 61.6307 104.22 62.4711C106.588 63.3116 109.488 63.7671 112.843 63.7671H140.605C141.214 63.7671 142.741 63.4592 142.741 61.0981V55.0737C142.741 52.7062 141.214 52.3983 140.605 52.3983H113.222C111.618 52.3983 110.245 52.2507 109.257 51.8657C108.262 51.5642 107.576 51.0253 106.966 50.1912C106.357 49.4277 105.978 48.2793 105.67 46.8357C105.439 45.3088 105.292 43.4033 105.292 41.1128V23.3409C105.292 21.0505 105.439 19.145 105.67 17.695C105.978 16.245 106.357 15.18 106.966 14.3395C107.576 13.499 108.262 12.9665 109.257 12.6586C110.245 12.28 111.618 12.126 113.222 12.126H140.605C141.214 12.126 142.741 11.8245 142.741 9.38006V3.50957C142.741 1.14212 141.214 0.840576 140.605 0.840576Z" fill="white"/>
<path d="M199.642 7.92998C199.488 7.55144 199.334 7.0895 199.18 6.78796C197.961 2.82297 194.298 0 190.102 0C188.197 0 186.368 0.532515 184.841 1.59754C184.386 1.82852 184.001 2.13648 183.699 2.36103C182.551 3.35548 181.409 5.184 180.344 7.92998L159.062 60.7901C158.831 61.4766 158.754 62.1631 158.908 62.625C158.985 63.0805 159.364 63.767 160.583 63.767H168.975C169.969 63.767 170.733 63.1575 171.111 62.1631L175.461 51.2561H192.162C193.002 51.2561 193.765 50.8776 194.15 50.1911C194.606 49.5816 194.683 48.7411 194.452 47.9776L191.706 41.1897C191.327 40.2722 190.487 39.6627 189.493 39.6627H180.036L189.8 14.9489C189.877 14.7949 189.954 14.7179 189.954 14.7179H190.256C190.256 14.7179 190.256 14.7179 190.333 14.8719L209.253 62.0861C209.632 63.1575 210.395 63.767 211.46 63.767H219.621C220.847 63.767 221.148 63.0035 221.302 62.625C221.456 62.1631 221.379 61.4766 221.071 60.7901L199.642 7.92998Z" fill="white"/>
<path d="M281.478 52.3983H256.688C255.084 52.3983 253.788 52.2507 252.723 51.8657C251.805 51.5642 251.042 51.0253 250.509 50.1912C249.9 49.3507 249.444 48.2087 249.213 46.8357C248.905 45.3088 248.835 43.4033 248.835 41.1128V3.50957C248.835 1.06513 247.308 0.840576 246.698 0.840576H239.679C238.993 0.840576 237.466 1.06513 237.466 3.50957V39.8168C237.466 44.0897 237.851 47.7468 238.537 50.7237C239.224 53.7712 240.289 56.2927 241.816 58.1982C243.343 60.1807 245.325 61.6307 247.763 62.4711C250.054 63.3116 252.954 63.7671 256.309 63.7671H281.478C282.165 63.7671 283.615 63.4592 283.615 61.0981V55.0737C283.615 52.7062 282.165 52.3983 281.478 52.3983Z" fill="white"/>
<path d="M345.468 50.0372H318.618C317.02 50.0372 315.724 49.8062 314.653 49.5046C313.665 49.1197 312.978 48.5872 312.369 47.8237C311.753 46.9832 311.297 45.8412 311.066 44.3912C310.996 44.0127 310.996 43.4738 310.919 43.0952C310.919 43.0952 310.996 37.6033 311.066 37.6033H345.166C345.776 37.6033 347.303 37.2953 347.303 34.9343V28.9098C347.303 26.5424 345.776 26.3114 345.166 26.3114L305.805 26.3884C303.592 26.5424 301.686 27.6844 300.621 29.5963C300.236 30.2058 299.935 30.8153 299.781 31.5018L299.627 41.1127V41.4913C299.704 45.0777 300.082 48.1317 300.621 50.6467C301.308 53.7006 302.45 56.2156 303.9 58.1211C305.427 60.1036 307.409 61.4766 309.847 62.3171C312.215 63.2345 315.038 63.6131 318.393 63.6131H345.468C346.154 63.6131 347.681 63.3821 347.681 61.0211V52.6292C347.681 50.2681 346.154 50.0372 345.468 50.0372ZM345.545 0.686523H301.686C301.077 0.686523 299.627 0.988068 299.627 3.4325V9.37999C299.627 11.7474 301.077 11.972 301.686 11.972L345.545 12.049C346.154 12.049 347.681 11.7474 347.681 9.37999V3.35551C347.681 0.988068 346.154 0.686523 345.545 0.686523Z" fill="white"/>
<path d="M400.534 26.1639H377.655C376.507 26.1639 375.063 25.702 375.063 21.9679V16.322C375.063 14.949 375.288 13.884 375.673 13.1205C375.974 12.6586 376.436 12.126 377.732 12.126H408.772C409.388 12.126 410.908 11.8951 410.908 9.53404V3.43258C410.908 1.06513 409.388 0.840576 408.772 0.840576H375.897C371.701 0.840576 368.654 2.21357 366.671 5.03012C364.689 7.7761 363.694 11.4395 363.694 15.8665V21.66C363.694 26.9274 364.766 31.1939 366.671 33.8629C369.032 36.9938 372.542 37.4494 375.75 37.4494H398.629C399.777 37.4494 401.298 37.9113 401.298 41.6453V48.2087C401.298 49.5817 401.073 50.6467 400.611 51.4102C400.31 51.8657 399.848 52.3983 398.552 52.3983H365.985C365.298 52.3983 363.771 52.6292 363.771 54.9967V61.0981C363.771 63.4592 365.298 63.6901 365.985 63.6901H400.387C404.582 63.6901 407.707 62.2402 409.689 59.4172C411.595 56.6712 412.589 53.0848 412.589 48.6642V41.9533C412.589 36.9938 411.595 33.1058 409.612 30.3599C407.553 27.6139 404.505 26.1639 400.534 26.1639Z" fill="white"/>
<path d="M481.307 0.840576H430.814C430.128 0.840576 428.601 1.06513 428.601 3.43258V9.38006C428.601 11.8951 430.128 12.126 430.814 12.126H450.415V61.0981C450.415 63.4592 451.942 63.6901 452.551 63.6901H459.57C460.257 63.6901 461.707 63.4592 461.707 61.0981V12.126H481.307C481.993 12.126 483.52 11.8951 483.52 9.38006V3.43258C483.52 1.06513 481.993 0.840576 481.307 0.840576Z" fill="white"/>
<path d="M508.688 0.840576H501.669C501.06 0.840576 499.533 1.14212 499.533 3.50957V61.0981C499.533 63.4592 501.06 63.7671 501.669 63.7671H508.688C509.298 63.7671 510.825 63.4592 510.825 61.0981V3.50957C510.825 1.14212 509.298 0.840576 508.688 0.840576Z" fill="white"/>
<path d="M567.726 7.92998C567.572 7.55144 567.418 7.0895 567.264 6.78796C566.045 2.82297 562.381 0 558.186 0C556.28 0 554.452 0.532515 552.925 1.59754C552.469 1.82852 552.084 2.13648 551.783 2.36103C550.634 3.35548 549.492 5.184 548.427 7.92998L527.146 60.7901C526.915 61.4766 526.838 62.1631 526.992 62.625C527.069 63.0805 527.447 63.767 528.666 63.767H537.058C538.053 63.767 538.816 63.1575 539.195 62.1631L543.545 51.2561H560.245C561.085 51.2561 561.849 50.8776 562.234 50.1911C562.689 49.5816 562.766 48.7411 562.535 47.9776L559.789 41.1897C559.411 40.2722 558.57 39.6627 557.576 39.6627H548.119L557.884 14.9489C557.961 14.7949 558.038 14.7179 558.038 14.7179H558.34C558.34 14.7179 558.34 14.7179 558.417 14.8719L577.337 62.0861C577.715 63.1575 578.479 63.767 579.544 63.767H587.705C588.93 63.767 589.232 63.0035 589.386 62.625C589.54 62.1631 589.463 61.4766 589.155 60.7901L567.726 7.92998Z" fill="white"/>
<path d="M649.562 52.3983H624.771C623.167 52.3983 621.871 52.2507 620.806 51.8657C619.889 51.5642 619.125 51.0253 618.593 50.1912C617.983 49.3507 617.528 48.2087 617.297 46.8357C616.989 45.3088 616.918 43.4033 616.918 41.1128V3.50957C616.918 1.06513 615.391 0.840576 614.782 0.840576H607.763C607.076 0.840576 605.549 1.06513 605.549 3.50957V39.8168C605.549 44.0897 605.934 47.7468 606.621 50.7237C607.307 53.7712 608.372 56.2927 609.899 58.1982C611.426 60.1807 613.409 61.6307 615.847 62.4711C618.137 63.3116 621.037 63.7671 624.393 63.7671H649.562C650.248 63.7671 651.698 63.4592 651.698 61.0981V55.0737C651.698 52.7062 650.248 52.3983 649.562 52.3983Z" fill="white"/>
<path d="M179.844 96.9211H153.449C152.763 96.9211 151.236 97.1457 151.236 99.5901V105.615C151.236 107.976 152.763 108.207 153.449 108.207C153.449 108.207 171.83 108.284 171.83 108.361V137.193C171.83 139.484 171.753 141.389 171.452 142.916C171.221 144.36 170.842 145.508 170.233 146.272C169.694 147.106 168.937 147.645 167.942 147.946C166.948 148.331 165.652 148.479 164.054 148.479H140.483C139.873 148.479 138.346 148.787 138.346 151.154V157.179C138.346 159.54 139.873 159.848 140.483 159.848H164.356C167.711 159.848 170.611 159.392 172.979 158.552C175.34 157.711 177.399 156.261 178.926 154.356C180.376 152.373 181.518 149.852 182.205 146.804C182.814 143.827 183.199 140.17 183.199 135.897V99.5901C183.199 98.5957 182.737 96.9211 179.844 96.9211Z" fill="white"/>
<path d="M251.153 102.484C249.632 100.578 247.65 99.1282 245.205 98.2171C242.844 97.3767 239.944 96.9211 236.589 96.9211H217.977C214.621 96.9211 211.798 97.3767 209.431 98.2171C206.993 99.1282 205.01 100.578 203.483 102.484C202.033 104.396 200.891 106.911 200.205 109.965C199.518 112.935 199.21 116.522 199.21 120.794V135.897C199.21 140.17 199.518 143.827 200.205 146.804C200.891 149.852 202.033 152.373 203.483 154.279C205.01 156.261 206.993 157.711 209.431 158.552C211.721 159.392 214.621 159.848 217.977 159.848H236.589C239.944 159.848 242.844 159.392 245.205 158.552C247.65 157.711 249.632 156.261 251.153 154.356C252.68 152.373 253.751 149.852 254.438 146.804C255.047 143.827 255.426 140.17 255.426 135.897V120.794C255.426 116.599 255.047 112.935 254.438 109.965C253.751 106.911 252.68 104.396 251.153 102.484ZM244.063 119.498V137.27C244.063 139.484 243.986 141.389 243.678 142.916C243.454 144.289 242.992 145.508 242.382 146.272C241.85 147.106 241.086 147.645 240.098 147.946C239.104 148.331 237.808 148.479 236.204 148.479H218.355C216.758 148.479 215.455 148.331 214.467 147.946C213.473 147.645 212.709 147.106 212.177 146.272C211.567 145.508 211.189 144.289 210.881 142.916C210.65 141.389 210.502 139.484 210.502 137.27V119.498C210.502 117.285 210.65 115.38 210.881 113.853C211.189 112.403 211.567 111.261 212.177 110.42C212.709 109.657 213.473 109.124 214.467 108.739C215.455 108.438 216.758 108.207 218.355 108.207H236.204C237.808 108.207 239.104 108.438 240.098 108.739C241.086 109.124 241.85 109.657 242.382 110.42C242.992 111.261 243.454 112.403 243.678 113.853C243.986 115.38 244.063 117.285 244.063 119.498Z" fill="white"/>
<path d="M324.145 96.9211H317.133C316.446 96.9211 314.996 97.1457 314.996 99.5131V137.116C314.996 139.407 314.842 141.389 314.611 142.839C314.387 144.289 313.925 145.431 313.392 146.272C312.783 147.035 312.096 147.568 311.102 147.946C310.114 148.254 308.741 148.479 307.137 148.479H290.661C289.057 148.479 287.684 148.254 286.696 147.946C285.701 147.568 285.015 147.035 284.405 146.272C283.873 145.431 283.417 144.289 283.109 142.839C282.878 141.389 282.731 139.407 282.731 137.116V99.5131C282.731 97.1457 281.281 96.9211 280.594 96.9211H273.652C272.966 96.9211 271.439 97.1457 271.439 99.5131V135.897C271.439 140.17 271.747 143.827 272.433 146.804C273.12 149.852 274.262 152.373 275.789 154.279C277.239 156.261 279.298 157.634 281.659 158.552C284.027 159.392 286.927 159.771 290.282 159.771H307.445C310.8 159.771 313.7 159.392 316.061 158.552C318.506 157.634 320.488 156.261 322.009 154.279C323.536 152.373 324.607 149.852 325.294 146.804C325.98 143.827 326.282 140.17 326.282 135.897V99.5131C326.282 97.1457 324.832 96.9211 324.145 96.9211Z" fill="white"/>
<path d="M394.314 115.149C394.314 115.226 394.314 115.303 394.314 115.38C394.314 115.457 394.314 115.527 394.314 115.604V115.149ZM395.764 156.492L382.419 133.607C386.153 133.151 389.053 131.547 390.959 128.955C393.095 125.824 394.237 121.327 394.314 115.38C394.237 109.426 393.095 104.928 390.959 101.797C388.675 98.5187 384.857 96.9211 379.673 96.9211H344.508C343.822 96.9211 342.295 97.1457 342.295 99.5901V105.615C342.295 107.976 343.822 108.207 344.508 108.207H377.691C379.673 108.207 380.969 108.739 381.733 109.888C382.567 111.03 382.952 112.858 382.952 115.38C382.952 117.895 382.567 119.723 381.733 120.871C380.969 122.013 379.673 122.546 377.691 122.546H344.508C343.822 122.546 342.295 122.777 342.295 125.138V157.179C342.295 159.54 343.822 159.848 344.508 159.848H351.45C352.137 159.848 353.587 159.54 353.587 157.179V133.838H369.677L383.484 158.321C383.792 158.776 384.017 159.161 384.325 159.392C384.703 159.694 385.242 159.848 385.929 159.848H394.314C395.232 159.848 395.918 159.238 396.072 158.321C396.149 157.557 396.072 156.948 395.764 156.492Z" fill="white"/>
<path d="M466.161 96.9211H459.373C458.686 96.9211 457.236 97.1457 457.236 99.5901V145.431C457.236 145.508 457.236 145.508 457.236 145.585H456.858C456.781 145.585 456.704 145.585 456.627 145.354L432.523 102.484C431.913 101.342 431.381 100.424 430.848 99.7377C430.316 98.9806 429.777 98.3647 429.244 97.9862C428.635 97.5306 427.948 97.2227 427.108 97.0687C426.344 96.9917 425.433 96.9211 424.439 96.9211H418.722C416.509 96.9211 414.828 97.6782 413.763 99.0512C412.691 100.501 412.159 103.023 412.159 106.757V157.179C412.159 159.54 413.686 159.848 414.372 159.848H421.16C421.847 159.848 423.297 159.54 423.297 157.179V111.338C423.297 111.261 423.297 111.184 423.297 111.184H423.675C423.675 111.184 423.752 111.184 423.906 111.408L448.087 154.279C448.697 155.498 449.306 156.415 449.839 157.102C450.371 157.865 450.91 158.398 451.52 158.776C452.129 159.238 452.816 159.463 453.579 159.617C454.266 159.771 455.106 159.848 456.171 159.848H461.74C463.954 159.848 465.628 159.084 466.7 157.634C467.765 156.261 468.297 153.746 468.297 150.006V99.5901C468.297 97.1457 466.777 96.9211 466.161 96.9211Z" fill="white"/>
<path d="M530.152 146.118H503.302C501.705 146.118 500.409 145.887 499.337 145.585C498.349 145.2 497.663 144.668 497.053 143.904C496.437 143.064 495.982 141.922 495.751 140.472C495.68 140.093 495.68 139.554 495.603 139.176C495.603 139.176 495.68 133.684 495.751 133.684H529.851C530.46 133.684 531.987 133.376 531.987 131.015V124.99C531.987 122.623 530.46 122.392 529.851 122.392L490.49 122.469C488.276 122.623 486.371 123.765 485.306 125.677C484.921 126.286 484.619 126.896 484.465 127.582L484.311 137.193V137.572C484.388 141.158 484.767 144.212 485.306 146.727C485.992 149.781 487.134 152.296 488.584 154.202C490.111 156.184 492.094 157.557 494.532 158.398C496.899 159.315 499.722 159.694 503.078 159.694H530.152C530.839 159.694 532.366 159.463 532.366 157.102V148.71C532.366 146.349 530.839 146.118 530.152 146.118ZM530.229 96.7671H486.371C485.761 96.7671 484.311 97.0686 484.311 99.5131V105.461C484.311 107.828 485.761 108.053 486.371 108.053L530.229 108.13C530.839 108.13 532.366 107.828 532.366 105.461V99.4361C532.366 97.0686 530.839 96.7671 530.229 96.7671Z" fill="white"/>
<path d="M604.825 96.9211H596.357C595.67 96.9211 594.759 97.1457 594.143 98.2941L577.366 128.878L560.736 98.3647C560.126 97.1457 559.209 96.9211 558.522 96.9211H549.829C549.142 96.9211 548.61 97.2997 548.456 97.9862C548.302 98.5187 548.379 99.1282 548.687 99.6671L571.566 140.472V157.179C571.566 159.54 573.093 159.771 573.702 159.771H580.721C581.331 159.771 582.858 159.54 582.858 157.179V140.472L605.967 99.6671C606.275 99.1282 606.352 98.5187 606.198 97.9092C605.967 97.2997 605.435 96.9211 604.825 96.9211Z" fill="white"/>
<path d="M16.7565 243.139C16.694 242.983 16.6315 242.795 16.569 242.67C16.0638 241.04 14.5638 239.884 12.8398 239.884C12.0586 239.884 11.3086 240.103 10.6784 240.54C10.4909 240.634 10.3346 240.759 10.2096 240.853C9.74085 241.259 9.2721 242.009 8.8346 243.139L0.095016 264.842C0.0012667 265.124 -0.029984 265.405 0.032516 265.592C0.0637667 265.78 0.220016 266.061 0.720016 266.061H4.16793C4.57418 266.061 4.88668 265.811 5.04293 265.405L6.82939 260.926H13.6888C14.0325 260.926 14.345 260.769 14.5013 260.488C14.6888 260.238 14.72 259.894 14.6263 259.577L13.4961 256.79C13.3398 256.415 12.9961 256.165 12.5898 256.165H8.7096L12.7148 246.019C12.7461 245.957 12.7773 245.926 12.7773 245.926H12.9023C12.9023 245.926 12.9023 245.926 12.9336 245.988L20.6992 265.374C20.8554 265.811 21.1731 266.061 21.6106 266.061H24.9596C25.4596 266.061 25.5846 265.749 25.6471 265.592C25.7096 265.405 25.6784 265.124 25.5534 264.842L16.7565 243.139Z" fill="white"/>
<path d="M36.0461 240.228H33.1606C32.9106 240.228 32.2856 240.353 32.2856 241.322V264.967C32.2856 265.936 32.9106 266.061 33.1606 266.061H36.0461C36.2961 266.061 36.9211 265.936 36.9211 264.967V241.322C36.9211 240.353 36.2961 240.228 36.0461 240.228Z" fill="white"/>
<path d="M80.2922 240.228H68.8911C67.5161 240.228 66.3234 240.415 65.3547 240.759C64.3494 241.134 63.5369 241.728 62.9432 242.514C62.313 243.295 61.8442 244.327 61.563 245.582C61.2817 246.801 61.1567 248.306 61.1567 250.03V256.228C61.1567 257.983 61.2817 259.483 61.563 260.738C61.8442 261.957 62.313 262.993 62.9432 263.806C63.5682 264.587 64.3807 265.186 65.3547 265.53C66.3234 265.874 67.5161 266.061 68.8911 266.061H80.2922C80.5422 266.061 81.1672 265.936 81.1672 264.967V262.493C81.1672 261.519 80.5422 261.394 80.2922 261.394H69.0474C68.3911 261.394 67.8286 261.332 67.4224 261.176C67.0109 261.051 66.7297 260.832 66.4797 260.488C66.2297 260.176 66.0734 259.702 65.9484 259.108C65.8547 258.483 65.7922 257.702 65.7922 256.759V249.462C65.7922 248.525 65.8547 247.743 65.9484 247.144C66.0734 246.551 66.2297 246.113 66.4797 245.769C66.7297 245.426 67.0109 245.207 67.4224 245.082C67.8286 244.926 68.3911 244.863 69.0474 244.863H80.2922C80.5422 244.863 81.1672 244.733 81.1672 243.733V241.322C81.1672 240.353 80.5422 240.228 80.2922 240.228Z" fill="white"/>
<path d="M109.101 247.712C109.101 247.743 109.101 247.775 109.101 247.806C109.101 247.837 109.101 247.868 109.101 247.9V247.712ZM109.695 264.681L104.216 255.29C105.747 255.103 106.94 254.441 107.721 253.379C108.596 252.092 109.07 250.249 109.101 247.806C109.07 245.363 108.596 243.514 107.721 242.228C106.784 240.884 105.216 240.228 103.086 240.228H88.6482C88.3669 240.228 87.7419 240.322 87.7419 241.322V243.795C87.7419 244.764 88.3669 244.863 88.6482 244.863H102.273C103.086 244.863 103.617 245.082 103.929 245.551C104.278 246.019 104.435 246.769 104.435 247.806C104.435 248.837 104.278 249.587 103.929 250.061C103.617 250.53 103.086 250.749 102.273 250.749H88.6482C88.3669 250.749 87.7419 250.842 87.7419 251.811V264.967C87.7419 265.936 88.3669 266.061 88.6482 266.061H91.5024C91.7836 266.061 92.3774 265.936 92.3774 264.967V255.384H98.9867L104.653 265.436C104.778 265.624 104.872 265.78 104.997 265.874C105.153 265.999 105.372 266.061 105.653 266.061H109.101C109.476 266.061 109.758 265.811 109.82 265.436C109.851 265.124 109.82 264.874 109.695 264.681Z" fill="white"/>
<path d="M133.212 243.139C133.149 242.983 133.087 242.795 133.024 242.67C132.519 241.04 131.019 239.884 129.295 239.884C128.514 239.884 127.764 240.103 127.133 240.54C126.946 240.634 126.79 240.759 126.665 240.853C126.196 241.259 125.727 242.009 125.29 243.139L116.55 264.842C116.456 265.124 116.425 265.405 116.488 265.592C116.519 265.78 116.675 266.061 117.175 266.061H120.623C121.029 266.061 121.342 265.811 121.498 265.405L123.284 260.926H130.144C130.488 260.926 130.8 260.769 130.956 260.488C131.144 260.238 131.175 259.894 131.081 259.577L129.951 256.79C129.795 256.415 129.451 256.165 129.045 256.165H125.165L129.17 246.019C129.201 245.957 129.232 245.926 129.232 245.926H129.357C129.357 245.926 129.357 245.926 129.389 245.988L137.154 265.374C137.311 265.811 137.628 266.061 138.066 266.061H141.415C141.915 266.061 142.04 265.749 142.102 265.592C142.165 265.405 142.133 265.124 142.008 264.842L133.212 243.139Z" fill="white"/>
<path d="M167.595 240.228H149.584C149.334 240.228 148.741 240.353 148.741 241.353V243.764C148.741 244.733 149.334 244.863 149.584 244.863H167.595C167.845 244.863 168.47 244.764 168.47 243.795V241.322C168.47 240.322 167.845 240.228 167.595 240.228ZM167.439 250.717L151.277 250.749C150.371 250.811 149.584 251.311 149.116 252.061C148.991 252.311 148.866 252.598 148.803 252.879L148.741 264.967C148.741 265.936 149.366 266.061 149.616 266.061H152.501C152.751 266.061 153.376 265.936 153.376 264.967C153.376 264.967 153.407 255.353 153.439 255.353H167.439C167.689 255.353 168.314 255.259 168.314 254.285V251.811C168.314 250.842 167.689 250.717 167.439 250.717Z" fill="white"/>
<path d="M196.685 240.228H175.95C175.669 240.228 175.044 240.322 175.044 241.29V243.733C175.044 244.764 175.669 244.863 175.95 244.863H184.003V264.967C184.003 265.936 184.628 266.03 184.878 266.03H187.758C188.039 266.03 188.633 265.936 188.633 264.967V244.863H196.685C196.966 244.863 197.591 244.764 197.591 243.733V241.29C197.591 240.322 196.966 240.228 196.685 240.228Z" fill="white"/>
<path d="M222.989 260.426H211.963C211.306 260.426 210.775 260.332 210.332 260.207C209.926 260.051 209.645 259.832 209.395 259.514C209.145 259.17 208.957 258.702 208.864 258.108C208.832 257.952 208.832 257.733 208.801 257.577C208.801 257.577 208.832 255.322 208.864 255.322H222.864C223.114 255.322 223.739 255.197 223.739 254.223V251.749C223.739 250.78 223.114 250.686 222.864 250.686L206.702 250.717C205.796 250.78 205.01 251.249 204.572 252.03C204.416 252.28 204.291 252.535 204.228 252.816L204.166 256.759V256.915C204.197 258.389 204.353 259.639 204.572 260.676C204.853 261.926 205.322 262.962 205.921 263.743C206.546 264.556 207.358 265.124 208.364 265.467C209.332 265.842 210.494 265.999 211.869 265.999H222.989C223.27 265.999 223.895 265.905 223.895 264.936V261.488C223.895 260.519 223.27 260.426 222.989 260.426ZM223.02 240.165H205.01C204.76 240.165 204.166 240.29 204.166 241.29V243.733C204.166 244.702 204.76 244.795 205.01 244.795L223.02 244.827C223.27 244.827 223.895 244.702 223.895 243.733V241.259C223.895 240.29 223.27 240.165 223.02 240.165Z" fill="white"/>
<path d="M251.86 246.051C251.542 244.733 251.011 243.639 250.354 242.764C249.667 241.915 248.755 241.259 247.693 240.853C246.625 240.447 245.375 240.228 243.901 240.228H232.974V240.259C232.068 240.322 231.281 240.822 230.813 241.572C230.688 241.822 230.563 242.103 230.5 242.358L230.469 263.743C230.531 264.087 230.656 264.431 230.813 264.712C231.313 265.561 232.224 266.061 233.193 266.061H243.901C245.375 266.061 246.656 265.842 247.693 265.436C248.755 265.03 249.667 264.368 250.354 263.493C251.011 262.65 251.542 261.551 251.86 260.238C252.172 258.92 252.328 257.358 252.328 255.603V250.686C252.328 248.931 252.172 247.368 251.86 246.051ZM235.073 261.238V245.051C235.073 244.926 235.104 244.863 235.136 244.863H243.808C244.531 244.863 245.156 244.957 245.656 245.144C246.156 245.332 246.531 245.582 246.818 245.988C247.13 246.394 247.349 246.926 247.474 247.587C247.599 248.306 247.693 249.181 247.693 250.217V256.072C247.693 257.103 247.599 257.983 247.474 258.67C247.349 259.358 247.13 259.894 246.818 260.301C246.531 260.676 246.156 260.957 245.656 261.144C245.156 261.332 244.531 261.394 243.808 261.394H235.104C235.104 261.394 235.073 261.363 235.073 261.238Z" fill="white"/>
<path d="M293.349 243.139C293.287 242.983 293.224 242.795 293.162 242.67C292.656 241.04 291.156 239.884 289.432 239.884C288.651 239.884 287.901 240.103 287.271 240.54C287.083 240.634 286.927 240.759 286.802 240.853C286.333 241.259 285.865 242.009 285.427 243.139L276.688 264.842C276.594 265.124 276.563 265.405 276.625 265.592C276.656 265.78 276.813 266.061 277.313 266.061H280.76C281.167 266.061 281.479 265.811 281.635 265.405L283.422 260.926H290.281C290.625 260.926 290.938 260.769 291.094 260.488C291.281 260.238 291.313 259.894 291.219 259.577L290.089 256.79C289.932 256.415 289.589 256.165 289.182 256.165H285.302L289.307 246.019C289.339 245.957 289.37 245.926 289.37 245.926H289.495C289.495 245.926 289.495 245.926 289.526 245.988L297.292 265.374C297.448 265.811 297.766 266.061 298.203 266.061H301.552C302.052 266.061 302.177 265.749 302.24 265.592C302.302 265.405 302.271 265.124 302.146 264.842L293.349 243.139Z" fill="white"/>
<path d="M330.238 247.712C330.238 247.743 330.238 247.775 330.238 247.806C330.238 247.837 330.238 247.868 330.238 247.9V247.712ZM330.831 264.681L325.352 255.29C326.883 255.103 328.076 254.441 328.857 253.379C329.732 252.092 330.206 250.249 330.238 247.806C330.206 245.363 329.732 243.514 328.857 242.228C327.92 240.884 326.352 240.228 324.222 240.228H309.784C309.503 240.228 308.878 240.322 308.878 241.322V243.795C308.878 244.764 309.503 244.863 309.784 244.863H323.409C324.222 244.863 324.753 245.082 325.066 245.551C325.415 246.019 325.571 246.769 325.571 247.806C325.571 248.837 325.415 249.587 325.066 250.061C324.753 250.53 324.222 250.749 323.409 250.749H309.784C309.503 250.749 308.878 250.842 308.878 251.811V264.967C308.878 265.936 309.503 266.061 309.784 266.061H312.639C312.92 266.061 313.514 265.936 313.514 264.967V255.384H320.123L325.79 265.436C325.915 265.624 326.008 265.78 326.133 265.874C326.29 265.999 326.508 266.061 326.79 266.061H330.238C330.613 266.061 330.894 265.811 330.956 265.436C330.988 265.124 330.956 264.874 330.831 264.681Z" fill="white"/>
<path d="M359.202 240.228H338.468C338.186 240.228 337.561 240.322 337.561 241.29V243.733C337.561 244.764 338.186 244.863 338.468 244.863H346.52V264.967C346.52 265.936 347.145 266.03 347.395 266.03H350.275C350.556 266.03 351.15 265.936 351.15 264.967V244.863H359.202C359.483 244.863 360.108 244.764 360.108 243.733V241.29C360.108 240.322 359.483 240.228 359.202 240.228Z" fill="white"/>
<path d="M370.444 240.228H367.558C367.308 240.228 366.683 240.353 366.683 241.322V264.967C366.683 265.936 367.308 266.061 367.558 266.061H370.444C370.694 266.061 371.319 265.936 371.319 264.967V241.322C371.319 240.353 370.694 240.228 370.444 240.228Z" fill="white"/>
<path d="M393.018 250.624H383.622C383.154 250.624 382.56 250.436 382.56 248.9V246.582C382.56 246.019 382.654 245.582 382.81 245.269C382.935 245.082 383.122 244.863 383.654 244.863H396.399C396.654 244.863 397.279 244.764 397.279 243.795V241.29C397.279 240.322 396.654 240.228 396.399 240.228H382.904C381.18 240.228 379.93 240.79 379.112 241.947C378.3 243.077 377.893 244.577 377.893 246.394V248.775C377.893 250.936 378.331 252.691 379.112 253.785C380.086 255.072 381.524 255.259 382.841 255.259H392.237C392.706 255.259 393.331 255.447 393.331 256.978V259.67C393.331 260.238 393.237 260.676 393.05 260.988C392.925 261.176 392.737 261.394 392.206 261.394H378.831C378.55 261.394 377.925 261.488 377.925 262.462V264.967C377.925 265.936 378.55 266.03 378.831 266.03H392.956C394.68 266.03 395.961 265.436 396.779 264.275C397.56 263.15 397.966 261.676 397.966 259.863V257.103C397.966 255.072 397.56 253.473 396.747 252.348C395.899 251.217 394.649 250.624 393.018 250.624Z" fill="white"/>
<path d="M426.182 240.228H405.447C405.166 240.228 404.541 240.322 404.541 241.29V243.733C404.541 244.764 405.166 244.863 405.447 244.863H413.499V264.967C413.499 265.936 414.124 266.03 414.374 266.03H417.255C417.536 266.03 418.13 265.936 418.13 264.967V244.863H426.182C426.463 244.863 427.088 244.764 427.088 243.733V241.29C427.088 240.322 426.463 240.228 426.182 240.228Z" fill="white"/>
<path d="M455.022 247.712C455.022 247.743 455.022 247.775 455.022 247.806C455.022 247.837 455.022 247.868 455.022 247.9V247.712ZM455.616 264.681L450.137 255.29C451.668 255.103 452.861 254.441 453.642 253.379C454.517 252.092 454.991 250.249 455.022 247.806C454.991 245.363 454.517 243.514 453.642 242.228C452.704 240.884 451.137 240.228 449.006 240.228H434.569C434.288 240.228 433.663 240.322 433.663 241.322V243.795C433.663 244.764 434.288 244.863 434.569 244.863H448.194C449.006 244.863 449.538 245.082 449.85 245.551C450.199 246.019 450.355 246.769 450.355 247.806C450.355 248.837 450.199 249.587 449.85 250.061C449.538 250.53 449.006 250.749 448.194 250.749H434.569C434.288 250.749 433.663 250.842 433.663 251.811V264.967C433.663 265.936 434.288 266.061 434.569 266.061H437.423C437.704 266.061 438.298 265.936 438.298 264.967V255.384H444.907L450.574 265.436C450.699 265.624 450.793 265.78 450.918 265.874C451.074 265.999 451.293 266.061 451.574 266.061H455.022C455.397 266.061 455.678 265.811 455.741 265.436C455.772 265.124 455.741 264.874 455.616 264.681Z" fill="white"/>
<path d="M485.518 240.228H482.044C481.763 240.228 481.388 240.322 481.138 240.79L474.247 253.348L467.419 240.822C467.169 240.322 466.794 240.228 466.513 240.228H462.94C462.658 240.228 462.44 240.384 462.377 240.665C462.315 240.884 462.346 241.134 462.471 241.353L471.867 258.108V264.967C471.867 265.936 472.492 266.03 472.742 266.03H475.622C475.872 266.03 476.502 265.936 476.502 264.967V258.108L485.987 241.353C486.117 241.134 486.148 240.884 486.086 240.634C485.987 240.384 485.768 240.228 485.518 240.228Z" fill="white"/>
<path d="M525.475 250.624H516.079C515.61 250.624 515.016 250.436 515.016 248.9V246.582C515.016 246.019 515.11 245.582 515.266 245.269C515.391 245.082 515.579 244.863 516.11 244.863H528.855C529.11 244.863 529.735 244.764 529.735 243.795V241.29C529.735 240.322 529.11 240.228 528.855 240.228H515.36C513.636 240.228 512.386 240.79 511.568 241.947C510.756 243.077 510.35 244.577 510.35 246.394V248.775C510.35 250.936 510.787 252.691 511.568 253.785C512.542 255.072 513.98 255.259 515.298 255.259H524.693C525.162 255.259 525.787 255.447 525.787 256.978V259.67C525.787 260.238 525.693 260.676 525.506 260.988C525.381 261.176 525.193 261.394 524.662 261.394H511.287C511.006 261.394 510.381 261.488 510.381 262.462V264.967C510.381 265.936 511.006 266.03 511.287 266.03H525.412C527.136 266.03 528.417 265.436 529.235 264.275C530.016 263.15 530.423 261.676 530.423 259.863V257.103C530.423 255.072 530.016 253.473 529.204 252.348C528.355 251.217 527.105 250.624 525.475 250.624Z" fill="white"/>
<path d="M557.226 240.228H554.346C554.096 240.228 553.503 240.353 553.503 241.322V250.686H541.633V241.322C541.633 240.353 541.039 240.228 540.758 240.228H537.904C537.622 240.228 536.997 240.353 536.997 241.322V264.967C536.997 265.936 537.622 266.061 537.904 266.061H540.758C541.039 266.061 541.633 265.936 541.633 264.967V255.322H553.503V264.967C553.503 265.936 554.096 266.061 554.346 266.061H557.226C557.508 266.061 558.133 265.936 558.133 264.967V241.322C558.133 240.353 557.508 240.228 557.226 240.228Z" fill="white"/>
<path d="M586.038 242.514C585.408 241.728 584.595 241.134 583.595 240.759C582.621 240.415 581.434 240.228 580.054 240.228H572.413C571.038 240.228 569.877 240.415 568.908 240.759C567.903 241.134 567.09 241.728 566.465 242.514C565.866 243.295 565.397 244.327 565.116 245.582C564.835 246.801 564.71 248.275 564.71 250.03V256.228C564.71 257.983 564.835 259.483 565.116 260.707C565.397 261.957 565.866 262.993 566.465 263.775C567.09 264.587 567.903 265.186 568.908 265.53C569.845 265.874 571.038 266.061 572.413 266.061H580.054C581.434 266.061 582.621 265.874 583.595 265.53C584.595 265.186 585.408 264.587 586.038 263.806C586.663 262.993 587.101 261.957 587.382 260.707C587.632 259.483 587.788 257.983 587.788 256.228V250.03C587.788 248.306 587.632 246.801 587.382 245.582C587.101 244.327 586.663 243.295 586.038 242.514ZM583.121 249.493V256.79C583.121 257.702 583.09 258.483 582.965 259.108C582.871 259.67 582.684 260.176 582.434 260.488C582.215 260.832 581.903 261.051 581.496 261.176C581.09 261.332 580.554 261.394 579.897 261.394H572.569C571.913 261.394 571.382 261.332 570.976 261.176C570.564 261.051 570.252 260.832 570.033 260.488C569.783 260.176 569.627 259.67 569.502 259.108C569.408 258.483 569.345 257.702 569.345 256.79V249.493C569.345 248.587 569.408 247.806 569.502 247.176C569.627 246.582 569.783 246.113 570.033 245.769C570.252 245.457 570.564 245.238 570.976 245.082C571.382 244.957 571.913 244.863 572.569 244.863H579.897C580.554 244.863 581.09 244.957 581.496 245.082C581.903 245.238 582.215 245.457 582.434 245.769C582.684 246.113 582.871 246.582 582.965 247.176C583.09 247.806 583.121 248.587 583.121 249.493Z" fill="white"/>
<path d="M632.192 239.848H628.749C628.343 239.848 628.03 240.103 627.838 240.54L621.921 259.327C621.89 259.389 621.89 259.389 621.89 259.389L621.765 259.421C621.765 259.421 621.734 259.389 621.734 259.358L616.254 240.54C616.098 240.103 615.786 239.848 615.374 239.848H611.838C611.432 239.848 611.119 240.103 610.932 240.54L605.01 259.327C604.978 259.389 604.978 259.389 604.978 259.389L604.853 259.421C604.853 259.421 604.822 259.389 604.822 259.358L599.343 240.54C599.187 240.103 598.874 239.848 598.437 239.848H595.083C594.583 239.848 594.458 240.165 594.426 240.322C594.364 240.54 594.364 240.79 594.489 241.072L600.973 262.775C601.036 262.931 601.129 263.118 601.192 263.243C601.661 264.874 603.197 266.03 604.916 266.03C605.702 266.03 606.452 265.811 607.077 265.374C607.265 265.28 607.39 265.155 607.546 265.061C607.984 264.65 608.458 263.9 608.926 262.743L613.562 248.337L617.879 262.775C617.942 262.931 618.041 263.118 618.103 263.243C618.572 264.874 620.103 266.03 621.827 266.03C622.609 266.03 623.364 265.811 623.989 265.374C624.176 265.28 624.333 265.155 624.458 265.061C624.926 264.65 625.364 263.9 625.838 262.743L632.817 241.072C632.911 240.79 632.942 240.54 632.879 240.322C632.848 240.134 632.692 239.848 632.192 239.848Z" fill="white"/>
<path d="M658.653 240.228H647.252C645.877 240.228 644.685 240.415 643.716 240.759C642.711 241.134 641.898 241.728 641.305 242.514C640.674 243.295 640.206 244.327 639.924 245.582C639.643 246.801 639.518 248.306 639.518 250.03V256.228C639.518 257.983 639.643 259.483 639.924 260.738C640.206 261.957 640.674 262.993 641.305 263.806C641.93 264.587 642.742 265.186 643.716 265.53C644.685 265.874 645.877 266.061 647.252 266.061H658.653C658.903 266.061 659.528 265.936 659.528 264.967V262.493C659.528 261.519 658.903 261.394 658.653 261.394H647.409C646.752 261.394 646.19 261.332 645.784 261.176C645.372 261.051 645.091 260.832 644.841 260.488C644.591 260.176 644.435 259.702 644.31 259.108C644.216 258.483 644.153 257.702 644.153 256.759V249.462C644.153 248.525 644.216 247.743 644.31 247.144C644.435 246.551 644.591 246.113 644.841 245.769C645.091 245.426 645.372 245.207 645.784 245.082C646.19 244.926 646.752 244.863 647.409 244.863H658.653C658.903 244.863 659.528 244.733 659.528 243.733V241.322C659.528 240.353 658.903 240.228 658.653 240.228Z" fill="white"/>
<path d="M682.89 243.139C682.827 242.983 682.765 242.795 682.702 242.67C682.197 241.04 680.697 239.884 678.973 239.884C678.192 239.884 677.442 240.103 676.811 240.54C676.624 240.634 676.468 240.759 676.343 240.853C675.874 241.259 675.405 242.009 674.968 243.139L666.228 264.842C666.134 265.124 666.103 265.405 666.166 265.592C666.197 265.78 666.353 266.061 666.853 266.061H670.301C670.707 266.061 671.02 265.811 671.176 265.405L672.962 260.926H679.822C680.166 260.926 680.478 260.769 680.634 260.488C680.822 260.238 680.853 259.894 680.759 259.577L679.629 256.79C679.473 256.415 679.129 256.165 678.723 256.165H674.843L678.848 246.019C678.879 245.957 678.91 245.926 678.91 245.926H679.035C679.035 245.926 679.035 245.926 679.067 245.988L686.832 265.374C686.988 265.811 687.306 266.061 687.744 266.061H691.093C691.593 266.061 691.718 265.749 691.78 265.592C691.843 265.405 691.811 265.124 691.686 264.842L682.89 243.139Z" fill="white"/>
<path d="M713.544 250.624H704.148C703.679 250.624 703.085 250.436 703.085 248.9V246.582C703.085 246.019 703.179 245.582 703.335 245.269C703.46 245.082 703.648 244.863 704.179 244.863H716.924C717.179 244.863 717.804 244.764 717.804 243.795V241.29C717.804 240.322 717.179 240.228 716.924 240.228H703.429C701.705 240.228 700.455 240.79 699.637 241.947C698.825 243.077 698.419 244.577 698.419 246.394V248.775C698.419 250.936 698.856 252.691 699.637 253.785C700.611 255.072 702.049 255.259 703.367 255.259H712.762C713.231 255.259 713.856 255.447 713.856 256.978V259.67C713.856 260.238 713.762 260.676 713.575 260.988C713.45 261.176 713.262 261.394 712.731 261.394H699.356C699.075 261.394 698.45 261.488 698.45 262.462V264.967C698.45 265.936 699.075 266.03 699.356 266.03H713.481C715.205 266.03 716.486 265.436 717.304 264.275C718.085 263.15 718.492 261.676 718.492 259.863V257.103C718.492 255.072 718.085 253.473 717.273 252.348C716.424 251.217 715.174 250.624 713.544 250.624Z" fill="white"/>
<path d="M743.89 260.426H732.864C732.207 260.426 731.676 260.332 731.233 260.207C730.827 260.051 730.546 259.832 730.296 259.514C730.046 259.17 729.858 258.702 729.765 258.108C729.733 257.952 729.733 257.733 729.702 257.577C729.702 257.577 729.733 255.322 729.765 255.322H743.765C744.015 255.322 744.64 255.197 744.64 254.223V251.749C744.64 250.78 744.015 250.686 743.765 250.686L727.603 250.717C726.697 250.78 725.91 251.249 725.473 252.03C725.317 252.28 725.192 252.535 725.129 252.816L725.067 256.759V256.915C725.098 258.389 725.254 259.639 725.473 260.676C725.754 261.926 726.223 262.962 726.822 263.743C727.447 264.556 728.259 265.124 729.265 265.467C730.233 265.842 731.395 265.999 732.77 265.999H743.89C744.171 265.999 744.796 265.905 744.796 264.936V261.488C744.796 260.519 744.171 260.426 743.89 260.426ZM743.921 240.165H725.91C725.66 240.165 725.067 240.29 725.067 241.29V243.733C725.067 244.702 725.66 244.795 725.91 244.795L743.921 244.827C744.171 244.827 744.796 244.702 744.796 243.733V241.259C744.796 240.29 744.171 240.165 743.921 240.165Z" fill="white"/>
</svg>
