<svg width="881" height="117" viewBox="0 0 881 117" fill="none" xmlns="http://www.w3.org/2000/svg">
<path d="M38.0257 1.01514H15.4893C12.7653 1.01514 10.4111 1.38493 8.48926 2.06722C6.51009 2.8068 4.90072 3.98389 3.72363 5.53076C2.48405 7.08284 1.55697 9.12451 0.999674 11.6037C0.442383 14.0151 0.192383 16.9891 0.192383 20.3953V32.6558C0.192383 36.1245 0.442383 39.0933 0.999674 41.5724C1.55697 43.9839 2.48405 46.0308 3.72363 47.6401C4.96322 49.187 6.57259 50.3641 8.48926 51.0464C10.4111 51.7287 12.7653 52.0985 15.4893 52.0985H38.0257C38.5205 52.0985 39.7601 51.8485 39.7601 49.9318V45.0412C39.7601 43.1193 38.5205 42.8693 38.0257 42.8693H15.7965C14.4945 42.8693 13.3799 42.7495 12.5778 42.437C11.7705 42.1922 11.2132 41.7547 10.7184 41.0776C10.2236 40.4578 9.91634 39.5256 9.66634 38.3537C9.47884 37.1141 9.35905 35.5672 9.35905 33.7078V19.2808C9.35905 17.4214 9.47884 15.8745 9.66634 14.6974C9.91634 13.5203 10.2236 12.6558 10.7184 11.9735C11.2132 11.2912 11.7705 10.8589 12.5778 10.6089C13.3799 10.3016 14.4945 10.1766 15.7965 10.1766H38.0257C38.5205 10.1766 39.7601 9.9318 39.7601 7.94743V3.1818C39.7601 1.25993 38.5205 1.01514 38.0257 1.01514Z" fill="white"/>
<path d="M85.9521 6.77026C85.8271 6.46297 85.7021 6.08797 85.5771 5.84318C84.5875 2.62443 81.6135 0.332764 78.2073 0.332764C76.6604 0.332764 75.176 0.765056 73.9365 1.62964C73.5667 1.81714 73.2542 2.06714 73.0094 2.24943C72.0771 3.05672 71.15 4.5411 70.2854 6.77026L53.0094 49.6817C52.8219 50.239 52.7594 50.7963 52.8844 51.1713C52.9469 51.5411 53.2542 52.0984 54.2437 52.0984H61.0562C61.8635 52.0984 62.4833 51.6036 62.7906 50.7963L66.3219 41.9421H79.8792C80.5615 41.9421 81.1812 41.6348 81.4937 41.0776C81.8635 40.5828 81.926 39.9005 81.7385 39.2807L79.5094 33.7703C79.2021 33.0255 78.5198 32.5307 77.7125 32.5307H70.0354L77.9625 12.4682C78.025 12.3432 78.0875 12.2807 78.0875 12.2807H78.3323C78.3323 12.2807 78.3323 12.2807 78.3948 12.4057L93.7542 50.7338C94.0615 51.6036 94.6812 52.0984 95.5458 52.0984H102.171C103.166 52.0984 103.41 51.4786 103.535 51.1713C103.66 50.7963 103.598 50.239 103.348 49.6817L85.9521 6.77026Z" fill="white"/>
<path d="M152.386 42.8693H132.261C130.959 42.8693 129.907 42.7495 129.042 42.437C128.298 42.1922 127.678 41.7547 127.246 41.0776C126.751 40.3953 126.381 39.4683 126.193 38.3537C125.943 37.1141 125.886 35.5672 125.886 33.7078V3.1818C125.886 1.19743 124.647 1.01514 124.152 1.01514H118.454C117.897 1.01514 116.657 1.19743 116.657 3.1818V32.6558C116.657 36.1245 116.969 39.0933 117.527 41.5099C118.084 43.9839 118.949 46.0308 120.188 47.5776C121.428 49.187 123.037 50.3641 125.016 51.0464C126.876 51.7287 129.23 52.0985 131.954 52.0985H152.386C152.943 52.0985 154.121 51.8485 154.121 49.9318V45.0412C154.121 43.1193 152.943 42.8693 152.386 42.8693Z" fill="white"/>
<path d="M204.332 40.9526H182.535C181.238 40.9526 180.186 40.7651 179.317 40.5203C178.514 40.2078 177.957 39.7756 177.462 39.1558C176.962 38.4735 176.593 37.5464 176.405 36.3693C176.348 36.062 176.348 35.6245 176.285 35.3172C176.285 35.3172 176.348 30.8589 176.405 30.8589H204.087C204.582 30.8589 205.822 30.6089 205.822 28.6922V23.8016C205.822 21.8797 204.582 21.6922 204.087 21.6922L172.134 21.7547C170.337 21.8797 168.791 22.8068 167.926 24.3589C167.613 24.8537 167.369 25.3485 167.244 25.9058L167.119 33.7078V34.0151C167.181 36.9266 167.488 39.4058 167.926 41.4474C168.483 43.9266 169.41 45.9683 170.587 47.5151C171.827 49.1245 173.436 50.2391 175.416 50.9214C177.337 51.6662 179.629 51.9735 182.353 51.9735H204.332C204.889 51.9735 206.129 51.786 206.129 49.8693V43.0568C206.129 41.1401 204.889 40.9526 204.332 40.9526ZM204.395 0.890137H168.791C168.296 0.890137 167.119 1.13493 167.119 3.1193V7.94743C167.119 9.8693 168.296 10.0516 168.791 10.0516L204.395 10.1141C204.889 10.1141 206.129 9.8693 206.129 7.94743V3.0568C206.129 1.13493 204.889 0.890137 204.395 0.890137Z" fill="white"/>
<path d="M249.035 21.5724H230.462C229.529 21.5724 228.358 21.1974 228.358 18.1662V13.5828C228.358 12.4683 228.54 11.6037 228.852 10.9839C229.097 10.6089 229.472 10.1766 230.524 10.1766H255.722C256.222 10.1766 257.457 9.9891 257.457 8.07243V3.1193C257.457 1.19743 256.222 1.01514 255.722 1.01514H229.035C225.628 1.01514 223.154 2.12972 221.545 4.41618C219.936 6.64535 219.128 9.6193 219.128 13.2131V17.9162C219.128 22.1922 219.998 25.6558 221.545 27.8224C223.462 30.3641 226.311 30.7339 228.915 30.7339H247.488C248.42 30.7339 249.654 31.1089 249.654 34.1401V39.4683C249.654 40.5828 249.472 41.4474 249.097 42.0672C248.852 42.437 248.477 42.8693 247.425 42.8693H220.988C220.431 42.8693 219.191 43.0568 219.191 44.9787V49.9318C219.191 51.8485 220.431 52.036 220.988 52.036H248.915C252.321 52.036 254.858 50.8589 256.467 48.5672C258.014 46.3381 258.821 43.4266 258.821 39.8381V34.3901C258.821 30.3641 258.014 27.2078 256.404 24.9787C254.733 22.7495 252.259 21.5724 249.035 21.5724Z" fill="white"/>
<path d="M314.606 1.01514H273.616C273.059 1.01514 271.819 1.19743 271.819 3.1193V7.94743C271.819 9.9891 273.059 10.1766 273.616 10.1766H289.527V49.9318C289.527 51.8485 290.767 52.036 291.262 52.036H296.96C297.517 52.036 298.694 51.8485 298.694 49.9318V10.1766H314.606C315.163 10.1766 316.402 9.9891 316.402 7.94743V3.1193C316.402 1.19743 315.163 1.01514 314.606 1.01514Z" fill="white"/>
<path d="M336.833 1.01514H331.135C330.641 1.01514 329.401 1.25993 329.401 3.1818V49.9318C329.401 51.8485 330.641 52.0985 331.135 52.0985H336.833C337.328 52.0985 338.568 51.8485 338.568 49.9318V3.1818C338.568 1.25993 337.328 1.01514 336.833 1.01514Z" fill="white"/>
<path d="M384.76 6.77026C384.635 6.46297 384.51 6.08797 384.385 5.84318C383.395 2.62443 380.421 0.332764 377.015 0.332764C375.468 0.332764 373.984 0.765056 372.744 1.62964C372.374 1.81714 372.062 2.06714 371.817 2.24943C370.885 3.05672 369.958 4.5411 369.093 6.77026L351.817 49.6817C351.629 50.239 351.567 50.7963 351.692 51.1713C351.754 51.5411 352.062 52.0984 353.051 52.0984H359.864C360.671 52.0984 361.291 51.6036 361.598 50.7963L365.129 41.9421H378.687C379.369 41.9421 379.989 41.6348 380.301 41.0776C380.671 40.5828 380.734 39.9005 380.546 39.2807L378.317 33.7703C378.01 33.0255 377.327 32.5307 376.52 32.5307H368.843L376.77 12.4682C376.833 12.3432 376.895 12.2807 376.895 12.2807H377.14C377.14 12.2807 377.14 12.2807 377.202 12.4057L392.562 50.7338C392.869 51.6036 393.489 52.0984 394.353 52.0984H400.978C401.973 52.0984 402.218 51.4786 402.343 51.1713C402.468 50.7963 402.406 50.239 402.156 49.6817L384.76 6.77026Z" fill="white"/>
<path d="M451.194 42.8693H431.069C429.767 42.8693 428.715 42.7495 427.85 42.437C427.105 42.1922 426.485 41.7547 426.053 41.0776C425.558 40.3953 425.189 39.4683 425.001 38.3537C424.751 37.1141 424.694 35.5672 424.694 33.7078V3.1818C424.694 1.19743 423.454 1.01514 422.959 1.01514H417.261C416.704 1.01514 415.465 1.19743 415.465 3.1818V32.6558C415.465 36.1245 415.777 39.0933 416.334 41.5099C416.892 43.9839 417.756 46.0308 418.996 47.5776C420.235 49.187 421.845 50.3641 423.824 51.0464C425.683 51.7287 428.038 52.0985 430.761 52.0985H451.194C451.751 52.0985 452.928 51.8485 452.928 49.9318V45.0412C452.928 43.1193 451.751 42.8693 451.194 42.8693Z" fill="white"/>
<path d="M534.535 1.01514H513.108C512.55 1.01514 511.311 1.19743 511.311 3.1818V8.07243C511.311 9.9891 512.55 10.1766 513.108 10.1766C513.108 10.1766 528.029 10.2391 528.029 10.3016V33.7078C528.029 35.5672 527.967 37.1141 527.722 38.3537C527.535 39.5256 527.227 40.4578 526.733 41.0776C526.295 41.7547 525.681 42.1922 524.873 42.437C524.066 42.7495 523.014 42.8693 521.717 42.8693H502.582C502.087 42.8693 500.847 43.1193 500.847 45.0412V49.9318C500.847 51.8485 502.087 52.0985 502.582 52.0985H521.962C524.686 52.0985 527.04 51.7287 528.962 51.0464C530.878 50.3641 532.55 49.187 533.79 47.6401C534.967 46.0308 535.894 43.9839 536.451 41.5099C536.946 39.0933 537.259 36.1245 537.259 32.6558V3.1818C537.259 2.37451 536.884 1.01514 534.535 1.01514Z" fill="white"/>
<path d="M592.423 5.53076C591.188 3.98389 589.579 2.8068 587.595 2.06722C585.678 1.38493 583.324 1.01514 580.6 1.01514H565.49C562.767 1.01514 560.475 1.38493 558.553 2.06722C556.574 2.8068 554.964 3.98389 553.725 5.53076C552.548 7.08284 551.621 9.12451 551.063 11.6037C550.506 14.0151 550.256 16.9266 550.256 20.3953V32.6558C550.256 36.1245 550.506 39.0933 551.063 41.5099C551.621 43.9839 552.548 46.0308 553.725 47.5776C554.964 49.187 556.574 50.3641 558.553 51.0464C560.412 51.7287 562.767 52.0985 565.49 52.0985H580.6C583.324 52.0985 585.678 51.7287 587.595 51.0464C589.579 50.3641 591.188 49.187 592.423 47.6401C593.662 46.0308 594.532 43.9839 595.089 41.5099C595.584 39.0933 595.892 36.1245 595.892 32.6558V20.3953C595.892 16.9891 595.584 14.0151 595.089 11.6037C594.532 9.12451 593.662 7.08284 592.423 5.53076ZM586.668 19.3433V33.7703C586.668 35.5672 586.605 37.1141 586.355 38.3537C586.173 39.4683 585.798 40.4578 585.303 41.0776C584.871 41.7547 584.251 42.1922 583.449 42.437C582.642 42.7495 581.589 42.8693 580.287 42.8693H565.798C564.501 42.8693 563.444 42.7495 562.642 42.437C561.834 42.1922 561.214 41.7547 560.782 41.0776C560.287 40.4578 559.98 39.4683 559.73 38.3537C559.543 37.1141 559.423 35.5672 559.423 33.7703V19.3433C559.423 17.5464 559.543 15.9995 559.73 14.7599C559.98 13.5828 560.287 12.6558 560.782 11.9735C561.214 11.3537 561.834 10.9214 562.642 10.6089C563.444 10.3641 564.501 10.1766 565.798 10.1766H580.287C581.589 10.1766 582.642 10.3641 583.449 10.6089C584.251 10.9214 584.871 11.3537 585.303 11.9735C585.798 12.6558 586.173 13.5828 586.355 14.7599C586.605 15.9995 586.668 17.5464 586.668 19.3433Z" fill="white"/>
<path d="M651.677 1.01514H645.985C645.427 1.01514 644.25 1.19743 644.25 3.1193V33.6453C644.25 35.5047 644.125 37.1141 643.938 38.2912C643.755 39.4683 643.38 40.3953 642.948 41.0776C642.453 41.6974 641.896 42.1297 641.089 42.437C640.287 42.687 639.172 42.8693 637.87 42.8693H624.495C623.193 42.8693 622.078 42.687 621.276 42.437C620.469 42.1297 619.912 41.6974 619.417 41.0776C618.985 40.3953 618.615 39.4683 618.365 38.2912C618.177 37.1141 618.058 35.5047 618.058 33.6453V3.1193C618.058 1.19743 616.88 1.01514 616.323 1.01514H610.688C610.13 1.01514 608.891 1.19743 608.891 3.1193V32.6558C608.891 36.1245 609.141 39.0933 609.698 41.5099C610.255 43.9839 611.183 46.0308 612.422 47.5776C613.599 49.187 615.271 50.3016 617.188 51.0464C619.11 51.7287 621.464 52.036 624.188 52.036H638.12C640.844 52.036 643.198 51.7287 645.115 51.0464C647.099 50.3016 648.709 49.187 649.943 47.5776C651.183 46.0308 652.052 43.9839 652.61 41.5099C653.167 39.0933 653.412 36.1245 653.412 32.6558V3.1193C653.412 1.19743 652.235 1.01514 651.677 1.01514Z" fill="white"/>
<path d="M708.64 15.812C708.64 15.8745 708.64 15.937 708.64 15.9995C708.64 16.062 708.64 16.1193 708.64 16.1818V15.812ZM709.817 49.3745L698.984 30.7964C702.015 30.4266 704.369 29.1245 705.916 27.0203C707.651 24.4787 708.578 20.8276 708.64 15.9995C708.578 11.1662 707.651 7.51514 705.916 4.97347C704.062 2.31201 700.963 1.01514 696.755 1.01514H668.208C667.651 1.01514 666.411 1.19743 666.411 3.1818V8.07243C666.411 9.9891 667.651 10.1766 668.208 10.1766H695.146C696.755 10.1766 697.807 10.6089 698.427 11.5412C699.104 12.4683 699.416 13.9526 699.416 15.9995C699.416 18.0412 699.104 19.5256 698.427 20.4578C697.807 21.3849 696.755 21.8172 695.146 21.8172H668.208C667.651 21.8172 666.411 22.0047 666.411 23.9214V49.9318C666.411 51.8485 667.651 52.0985 668.208 52.0985H673.843C674.401 52.0985 675.578 51.8485 675.578 49.9318V30.9839H688.64L699.849 50.8589C700.099 51.2287 700.281 51.5412 700.531 51.7287C700.838 51.9735 701.276 52.0985 701.833 52.0985H708.64C709.385 52.0985 709.942 51.6037 710.067 50.8589C710.13 50.2391 710.067 49.7443 709.817 49.3745Z" fill="white"/>
<path d="M766.965 1.01514H761.454C760.897 1.01514 759.72 1.19743 759.72 3.1818V40.3953C759.72 40.4578 759.72 40.4578 759.72 40.5203H759.413C759.35 40.5203 759.288 40.5203 759.225 40.3328L739.657 5.53076C739.163 4.60368 738.73 3.85889 738.298 3.3016C737.866 2.68701 737.428 2.18701 736.996 1.87972C736.501 1.50993 735.944 1.25993 735.262 1.13493C734.642 1.07243 733.902 1.01514 733.095 1.01514H728.454C726.657 1.01514 725.293 1.62972 724.428 2.7443C723.559 3.92139 723.126 5.96826 723.126 8.99951V49.9318C723.126 51.8485 724.366 52.0985 724.923 52.0985H730.434C730.991 52.0985 732.168 51.8485 732.168 49.9318V12.7183C732.168 12.6558 732.168 12.5933 732.168 12.5933H732.475C732.475 12.5933 732.538 12.5933 732.663 12.7756L752.293 47.5776C752.788 48.5672 753.282 49.312 753.715 49.8693C754.147 50.4891 754.585 50.9214 755.079 51.2287C755.574 51.6037 756.131 51.786 756.751 51.911C757.309 52.036 757.991 52.0985 758.855 52.0985H763.376C765.173 52.0985 766.532 51.4787 767.402 50.3016C768.267 49.187 768.699 47.1453 768.699 44.1089V3.1818C768.699 1.19743 767.465 1.01514 766.965 1.01514Z" fill="white"/>
<path d="M818.913 40.9526H797.116C795.819 40.9526 794.767 40.7651 793.897 40.5203C793.095 40.2078 792.538 39.7756 792.043 39.1558C791.543 38.4735 791.173 37.5464 790.986 36.3693C790.928 36.062 790.928 35.6245 790.866 35.3172C790.866 35.3172 790.928 30.8589 790.986 30.8589H818.668C819.163 30.8589 820.402 30.6089 820.402 28.6922V23.8016C820.402 21.8797 819.163 21.6922 818.668 21.6922L786.715 21.7547C784.918 21.8797 783.371 22.8068 782.507 24.3589C782.194 24.8537 781.949 25.3485 781.824 25.9058L781.699 33.7078V34.0151C781.762 36.9266 782.069 39.4058 782.507 41.4474C783.064 43.9266 783.991 45.9683 785.168 47.5151C786.408 49.1245 788.017 50.2391 789.996 50.9214C791.918 51.6662 794.21 51.9735 796.934 51.9735H818.913C819.47 51.9735 820.71 51.786 820.71 49.8693V43.0568C820.71 41.1401 819.47 40.9526 818.913 40.9526ZM818.975 0.890137H783.371C782.876 0.890137 781.699 1.13493 781.699 3.1193V7.94743C781.699 9.8693 782.876 10.0516 783.371 10.0516L818.975 10.1141C819.47 10.1141 820.71 9.8693 820.71 7.94743V3.0568C820.71 1.13493 819.47 0.890137 818.975 0.890137Z" fill="white"/>
<path d="M879.532 1.01514H872.657C872.099 1.01514 871.36 1.19743 870.86 2.12972L857.24 26.9578L843.74 2.18701C843.245 1.19743 842.5 1.01514 841.943 1.01514H834.886C834.329 1.01514 833.896 1.32243 833.771 1.87972C833.646 2.31201 833.709 2.8068 833.959 3.2443L852.532 36.3693V49.9318C852.532 51.8485 853.771 52.036 854.266 52.036H859.964C860.459 52.036 861.698 51.8485 861.698 49.9318V36.3693L880.459 3.2443C880.709 2.8068 880.771 2.31201 880.646 1.81722C880.459 1.32243 880.026 1.01514 879.532 1.01514Z" fill="white"/>
<path d="M66.8427 93.8426C66.7802 93.6864 66.7177 93.4989 66.6552 93.3739C66.1499 91.7437 64.6499 90.5874 62.926 90.5874C62.1447 90.5874 61.3947 90.8062 60.7645 91.2437C60.577 91.3374 60.4208 91.4624 60.2958 91.5562C59.827 91.9624 59.3583 92.7124 58.9208 93.8426L50.1812 115.546C50.0874 115.827 50.0562 116.108 50.1187 116.296C50.1499 116.483 50.3062 116.764 50.8062 116.764H54.2541C54.6604 116.764 54.9729 116.514 55.1291 116.108L56.9156 111.629H63.7749C64.1187 111.629 64.4312 111.473 64.5874 111.192C64.7749 110.942 64.8062 110.598 64.7124 110.28L63.5822 107.494C63.426 107.119 63.0822 106.869 62.676 106.869H58.7958L62.801 96.7228C62.8322 96.6603 62.8635 96.6291 62.8635 96.6291H62.9885C62.9885 96.6291 62.9885 96.6291 63.0197 96.6916L70.7854 116.077C70.9416 116.514 71.2593 116.764 71.6968 116.764H75.0458C75.5458 116.764 75.6708 116.452 75.7333 116.296C75.7958 116.108 75.7645 115.827 75.6395 115.546L66.8427 93.8426Z" fill="white"/>
<path d="M86.1322 90.9312H83.2468C82.9968 90.9312 82.3718 91.0562 82.3718 92.0249V115.671C82.3718 116.639 82.9968 116.764 83.2468 116.764H86.1322C86.3822 116.764 87.0072 116.639 87.0072 115.671V92.0249C87.0072 91.0562 86.3822 90.9312 86.1322 90.9312Z" fill="white"/>
<path d="M130.378 90.9312H118.977C117.602 90.9312 116.41 91.1187 115.441 91.4624C114.436 91.8374 113.623 92.4312 113.029 93.2176C112.399 93.9989 111.93 95.0301 111.649 96.2853C111.368 97.5041 111.243 99.0093 111.243 100.733V106.931C111.243 108.686 111.368 110.186 111.649 111.442C111.93 112.66 112.399 113.697 113.029 114.509C113.654 115.291 114.467 115.889 115.441 116.233C116.41 116.577 117.602 116.764 118.977 116.764H130.378C130.628 116.764 131.253 116.639 131.253 115.671V113.197C131.253 112.223 130.628 112.098 130.378 112.098H119.134C118.477 112.098 117.915 112.035 117.509 111.879C117.097 111.754 116.816 111.535 116.566 111.192C116.316 110.879 116.16 110.405 116.035 109.811C115.941 109.186 115.878 108.405 115.878 107.462V100.166C115.878 99.228 115.941 98.4468 116.035 97.8478C116.16 97.2541 116.316 96.8166 116.566 96.4728C116.816 96.1291 117.097 95.9103 117.509 95.7853C117.915 95.6291 118.477 95.5666 119.134 95.5666H130.378C130.628 95.5666 131.253 95.4364 131.253 94.4364V92.0249C131.253 91.0562 130.628 90.9312 130.378 90.9312Z" fill="white"/>
<path d="M159.188 98.4155C159.188 98.4468 159.188 98.478 159.188 98.5093C159.188 98.5405 159.188 98.5718 159.188 98.603V98.4155ZM159.781 115.384L154.302 105.994C155.833 105.806 157.026 105.145 157.807 104.082C158.682 102.796 159.156 100.952 159.188 98.5093C159.156 96.0666 158.682 94.2176 157.807 92.9312C156.87 91.5874 155.302 90.9312 153.172 90.9312H138.734C138.453 90.9312 137.828 91.0249 137.828 92.0249V94.4989C137.828 95.4676 138.453 95.5666 138.734 95.5666H152.359C153.172 95.5666 153.703 95.7853 154.016 96.2541C154.365 96.7228 154.521 97.4728 154.521 98.5093C154.521 99.5405 154.365 100.291 154.016 100.764C153.703 101.233 153.172 101.452 152.359 101.452H138.734C138.453 101.452 137.828 101.546 137.828 102.514V115.671C137.828 116.639 138.453 116.764 138.734 116.764H141.589C141.87 116.764 142.464 116.639 142.464 115.671V106.087H149.073L154.74 116.139C154.865 116.327 154.958 116.483 155.083 116.577C155.24 116.702 155.458 116.764 155.74 116.764H159.188C159.563 116.764 159.844 116.514 159.906 116.139C159.938 115.827 159.906 115.577 159.781 115.384Z" fill="white"/>
<path d="M183.298 93.8426C183.235 93.6864 183.173 93.4989 183.11 93.3739C182.605 91.7437 181.105 90.5874 179.381 90.5874C178.6 90.5874 177.85 90.8062 177.22 91.2437C177.032 91.3374 176.876 91.4624 176.751 91.5562C176.282 91.9624 175.813 92.7124 175.376 93.8426L166.636 115.546C166.543 115.827 166.511 116.108 166.574 116.296C166.605 116.483 166.761 116.764 167.261 116.764H170.709C171.115 116.764 171.428 116.514 171.584 116.108L173.371 111.629H180.23C180.574 111.629 180.886 111.473 181.043 111.192C181.23 110.942 181.261 110.598 181.168 110.28L180.037 107.494C179.881 107.119 179.537 106.869 179.131 106.869H175.251L179.256 96.7228C179.287 96.6603 179.319 96.6291 179.319 96.6291H179.444C179.444 96.6291 179.444 96.6291 179.475 96.6916L187.24 116.077C187.397 116.514 187.714 116.764 188.152 116.764H191.501C192.001 116.764 192.126 116.452 192.188 116.296C192.251 116.108 192.22 115.827 192.095 115.546L183.298 93.8426Z" fill="white"/>
<path d="M217.681 90.9312H199.671C199.421 90.9312 198.827 91.0562 198.827 92.0562V94.4676C198.827 95.4364 199.421 95.5666 199.671 95.5666H217.681C217.931 95.5666 218.556 95.4676 218.556 94.4989V92.0249C218.556 91.0249 217.931 90.9312 217.681 90.9312ZM217.525 101.421L201.363 101.452C200.457 101.514 199.671 102.014 199.202 102.764C199.077 103.014 198.952 103.301 198.889 103.582L198.827 115.671C198.827 116.639 199.452 116.764 199.702 116.764H202.587C202.837 116.764 203.462 116.639 203.462 115.671C203.462 115.671 203.494 106.056 203.525 106.056H217.525C217.775 106.056 218.4 105.962 218.4 104.988V102.514C218.4 101.546 217.775 101.421 217.525 101.421Z" fill="white"/>
<path d="M246.771 90.9312H226.037C225.755 90.9312 225.13 91.0249 225.13 91.9937V94.4364C225.13 95.4676 225.755 95.5666 226.037 95.5666H234.089V115.671C234.089 116.639 234.714 116.733 234.964 116.733H237.844C238.125 116.733 238.719 116.639 238.719 115.671V95.5666H246.771C247.052 95.5666 247.677 95.4676 247.677 94.4364V91.9937C247.677 91.0249 247.052 90.9312 246.771 90.9312Z" fill="white"/>
<path d="M273.075 111.129H262.049C261.393 111.129 260.861 111.035 260.419 110.91C260.012 110.754 259.731 110.535 259.481 110.218C259.231 109.874 259.044 109.405 258.95 108.811C258.919 108.655 258.919 108.436 258.887 108.28C258.887 108.28 258.919 106.025 258.95 106.025H272.95C273.2 106.025 273.825 105.9 273.825 104.926V102.452C273.825 101.483 273.2 101.389 272.95 101.389L256.788 101.421C255.882 101.483 255.096 101.952 254.658 102.733C254.502 102.983 254.377 103.238 254.314 103.52L254.252 107.462V107.619C254.283 109.093 254.439 110.343 254.658 111.379C254.939 112.629 255.408 113.666 256.007 114.447C256.632 115.259 257.445 115.827 258.45 116.171C259.419 116.546 260.58 116.702 261.955 116.702H273.075C273.356 116.702 273.981 116.608 273.981 115.639V112.192C273.981 111.223 273.356 111.129 273.075 111.129ZM273.106 90.8687H255.096C254.846 90.8687 254.252 90.9937 254.252 91.9937V94.4364C254.252 95.4051 254.846 95.4989 255.096 95.4989L273.106 95.5301C273.356 95.5301 273.981 95.4051 273.981 94.4364V91.9624C273.981 90.9937 273.356 90.8687 273.106 90.8687Z" fill="white"/>
<path d="M301.946 96.7541C301.628 95.4364 301.097 94.3426 300.441 93.4676C299.753 92.6187 298.842 91.9624 297.779 91.5562C296.711 91.1499 295.461 90.9312 293.987 90.9312H283.06V90.9624C282.154 91.0249 281.368 91.5249 280.899 92.2749C280.774 92.5249 280.649 92.8062 280.586 93.0614L280.555 114.447C280.618 114.791 280.743 115.134 280.899 115.416C281.399 116.264 282.31 116.764 283.279 116.764H293.987C295.461 116.764 296.743 116.546 297.779 116.139C298.842 115.733 299.753 115.072 300.441 114.197C301.097 113.353 301.628 112.254 301.946 110.942C302.258 109.624 302.415 108.061 302.415 106.306V101.389C302.415 99.6343 302.258 98.0718 301.946 96.7541ZM285.159 111.942V95.7541C285.159 95.6291 285.191 95.5666 285.222 95.5666H293.894C294.618 95.5666 295.243 95.6603 295.743 95.8478C296.243 96.0353 296.618 96.2853 296.904 96.6916C297.217 97.0978 297.435 97.6291 297.56 98.2905C297.685 99.0093 297.779 99.8843 297.779 100.921V106.775C297.779 107.806 297.685 108.686 297.56 109.374C297.435 110.061 297.217 110.598 296.904 111.004C296.618 111.379 296.243 111.66 295.743 111.848C295.243 112.035 294.618 112.098 293.894 112.098H285.191C285.191 112.098 285.159 112.067 285.159 111.942Z" fill="white"/>
<path d="M343.435 93.8426C343.373 93.6864 343.31 93.4989 343.248 93.3739C342.742 91.7437 341.242 90.5874 339.519 90.5874C338.737 90.5874 337.987 90.8062 337.357 91.2437C337.17 91.3374 337.013 91.4624 336.888 91.5562C336.42 91.9624 335.951 92.7124 335.513 93.8426L326.774 115.546C326.68 115.827 326.649 116.108 326.711 116.296C326.742 116.483 326.899 116.764 327.399 116.764H330.847C331.253 116.764 331.565 116.514 331.722 116.108L333.508 111.629H340.367C340.711 111.629 341.024 111.473 341.18 111.192C341.367 110.942 341.399 110.598 341.305 110.28L340.175 107.494C340.019 107.119 339.675 106.869 339.269 106.869H335.388L339.394 96.7228C339.425 96.6603 339.456 96.6291 339.456 96.6291H339.581C339.581 96.6291 339.581 96.6291 339.612 96.6916L347.378 116.077C347.534 116.514 347.852 116.764 348.289 116.764H351.638C352.138 116.764 352.263 116.452 352.326 116.296C352.388 116.108 352.357 115.827 352.232 115.546L343.435 93.8426Z" fill="white"/>
<path d="M380.324 98.4155C380.324 98.4468 380.324 98.478 380.324 98.5093C380.324 98.5405 380.324 98.5718 380.324 98.603V98.4155ZM380.917 115.384L375.438 105.994C376.97 105.806 378.162 105.145 378.944 104.082C379.819 102.796 380.292 100.952 380.324 98.5093C380.292 96.0666 379.819 94.2176 378.944 92.9312C378.006 91.5874 376.438 90.9312 374.308 90.9312H359.871C359.589 90.9312 358.964 91.0249 358.964 92.0249V94.4989C358.964 95.4676 359.589 95.5666 359.871 95.5666H373.496C374.308 95.5666 374.839 95.7853 375.152 96.2541C375.501 96.7228 375.657 97.4728 375.657 98.5093C375.657 99.5405 375.501 100.291 375.152 100.764C374.839 101.233 374.308 101.452 373.496 101.452H359.871C359.589 101.452 358.964 101.546 358.964 102.514V115.671C358.964 116.639 359.589 116.764 359.871 116.764H362.725C363.006 116.764 363.6 116.639 363.6 115.671V106.087H370.209L375.876 116.139C376.001 116.327 376.095 116.483 376.22 116.577C376.376 116.702 376.595 116.764 376.876 116.764H380.324C380.699 116.764 380.98 116.514 381.042 116.139C381.074 115.827 381.042 115.577 380.917 115.384Z" fill="white"/>
<path d="M409.288 90.9312H388.554C388.272 90.9312 387.647 91.0249 387.647 91.9937V94.4364C387.647 95.4676 388.272 95.5666 388.554 95.5666H396.606V115.671C396.606 116.639 397.231 116.733 397.481 116.733H400.361C400.642 116.733 401.236 116.639 401.236 115.671V95.5666H409.288C409.569 95.5666 410.194 95.4676 410.194 94.4364V91.9937C410.194 91.0249 409.569 90.9312 409.288 90.9312Z" fill="white"/>
<path d="M420.53 90.9312H417.644C417.394 90.9312 416.769 91.0562 416.769 92.0249V115.671C416.769 116.639 417.394 116.764 417.644 116.764H420.53C420.78 116.764 421.405 116.639 421.405 115.671V92.0249C421.405 91.0562 420.78 90.9312 420.53 90.9312Z" fill="white"/>
<path d="M443.104 101.327H433.709C433.24 101.327 432.646 101.139 432.646 99.603V97.2853C432.646 96.7228 432.74 96.2853 432.896 95.9728C433.021 95.7853 433.209 95.5666 433.74 95.5666H446.485C446.74 95.5666 447.365 95.4676 447.365 94.4989V91.9937C447.365 91.0249 446.74 90.9312 446.485 90.9312H432.99C431.266 90.9312 430.016 91.4937 429.198 92.6499C428.386 93.7801 427.979 95.2801 427.979 97.0978V99.478C427.979 101.639 428.417 103.395 429.198 104.488C430.172 105.775 431.61 105.962 432.927 105.962H442.323C442.792 105.962 443.417 106.15 443.417 107.681V110.374C443.417 110.942 443.323 111.379 443.136 111.692C443.011 111.879 442.823 112.098 442.292 112.098H428.917C428.636 112.098 428.011 112.192 428.011 113.166V115.671C428.011 116.639 428.636 116.733 428.917 116.733H443.042C444.766 116.733 446.047 116.139 446.865 114.978C447.646 113.853 448.052 112.379 448.052 110.567V107.806C448.052 105.775 447.646 104.176 446.834 103.051C445.985 101.921 444.735 101.327 443.104 101.327Z" fill="white"/>
<path d="M476.268 90.9312H455.533C455.252 90.9312 454.627 91.0249 454.627 91.9937V94.4364C454.627 95.4676 455.252 95.5666 455.533 95.5666H463.586V115.671C463.586 116.639 464.211 116.733 464.461 116.733H467.341C467.622 116.733 468.216 116.639 468.216 115.671V95.5666H476.268C476.549 95.5666 477.174 95.4676 477.174 94.4364V91.9937C477.174 91.0249 476.549 90.9312 476.268 90.9312Z" fill="white"/>
<path d="M505.108 98.4155C505.108 98.4468 505.108 98.478 505.108 98.5093C505.108 98.5405 505.108 98.5718 505.108 98.603V98.4155ZM505.702 115.384L500.223 105.994C501.754 105.806 502.947 105.145 503.728 104.082C504.603 102.796 505.077 100.952 505.108 98.5093C505.077 96.0666 504.603 94.2176 503.728 92.9312C502.79 91.5874 501.223 90.9312 499.093 90.9312H484.655C484.374 90.9312 483.749 91.0249 483.749 92.0249V94.4989C483.749 95.4676 484.374 95.5666 484.655 95.5666H498.28C499.093 95.5666 499.624 95.7853 499.936 96.2541C500.285 96.7228 500.441 97.4728 500.441 98.5093C500.441 99.5405 500.285 100.291 499.936 100.764C499.624 101.233 499.093 101.452 498.28 101.452H484.655C484.374 101.452 483.749 101.546 483.749 102.514V115.671C483.749 116.639 484.374 116.764 484.655 116.764H487.509C487.79 116.764 488.384 116.639 488.384 115.671V106.087H494.994L500.66 116.139C500.785 116.327 500.879 116.483 501.004 116.577C501.16 116.702 501.379 116.764 501.66 116.764H505.108C505.483 116.764 505.764 116.514 505.827 116.139C505.858 115.827 505.827 115.577 505.702 115.384Z" fill="white"/>
<path d="M535.604 90.9312H532.13C531.849 90.9312 531.474 91.0249 531.224 91.4937L524.333 104.051L517.505 91.5249C517.255 91.0249 516.88 90.9312 516.599 90.9312H513.026C512.745 90.9312 512.526 91.0874 512.463 91.3687C512.401 91.5874 512.432 91.8374 512.557 92.0562L521.953 108.811V115.671C521.953 116.639 522.578 116.733 522.828 116.733H525.708C525.958 116.733 526.588 116.639 526.588 115.671V108.811L536.073 92.0562C536.203 91.8374 536.234 91.5874 536.172 91.3374C536.073 91.0874 535.854 90.9312 535.604 90.9312Z" fill="white"/>
<path d="M575.561 101.327H566.165C565.696 101.327 565.102 101.139 565.102 99.603V97.2853C565.102 96.7228 565.196 96.2853 565.352 95.9728C565.477 95.7853 565.665 95.5666 566.196 95.5666H578.941C579.196 95.5666 579.821 95.4676 579.821 94.4989V91.9937C579.821 91.0249 579.196 90.9312 578.941 90.9312H565.446C563.722 90.9312 562.472 91.4937 561.655 92.6499C560.842 93.7801 560.436 95.2801 560.436 97.0978V99.478C560.436 101.639 560.873 103.395 561.655 104.488C562.629 105.775 564.066 105.962 565.384 105.962H574.78C575.248 105.962 575.873 106.15 575.873 107.681V110.374C575.873 110.942 575.78 111.379 575.592 111.692C575.467 111.879 575.28 112.098 574.748 112.098H561.373C561.092 112.098 560.467 112.192 560.467 113.166V115.671C560.467 116.639 561.092 116.733 561.373 116.733H575.498C577.222 116.733 578.504 116.139 579.321 114.978C580.102 113.853 580.509 112.379 580.509 110.567V107.806C580.509 105.775 580.102 104.176 579.29 103.051C578.441 101.921 577.191 101.327 575.561 101.327Z" fill="white"/>
<path d="M607.313 90.9312H604.432C604.182 90.9312 603.589 91.0562 603.589 92.0249V101.389H591.719V92.0249C591.719 91.0562 591.125 90.9312 590.844 90.9312H587.99C587.708 90.9312 587.083 91.0562 587.083 92.0249V115.671C587.083 116.639 587.708 116.764 587.99 116.764H590.844C591.125 116.764 591.719 116.639 591.719 115.671V106.025H603.589V115.671C603.589 116.639 604.182 116.764 604.432 116.764H607.313C607.594 116.764 608.219 116.639 608.219 115.671V92.0249C608.219 91.0562 607.594 90.9312 607.313 90.9312Z" fill="white"/>
<path d="M636.124 93.2176C635.494 92.4312 634.682 91.8374 633.682 91.4624C632.708 91.1187 631.52 90.9312 630.14 90.9312H622.499C621.124 90.9312 619.963 91.1187 618.994 91.4624C617.989 91.8374 617.176 92.4312 616.551 93.2176C615.952 93.9989 615.484 95.0301 615.202 96.2853C614.921 97.5041 614.796 98.978 614.796 100.733V106.931C614.796 108.686 614.921 110.186 615.202 111.41C615.484 112.66 615.952 113.697 616.551 114.478C617.176 115.291 617.989 115.889 618.994 116.233C619.932 116.577 621.124 116.764 622.499 116.764H630.14C631.52 116.764 632.708 116.577 633.682 116.233C634.682 115.889 635.494 115.291 636.124 114.509C636.749 113.697 637.187 112.66 637.468 111.41C637.718 110.186 637.874 108.686 637.874 106.931V100.733C637.874 99.0093 637.718 97.5041 637.468 96.2853C637.187 95.0301 636.749 93.9989 636.124 93.2176ZM633.208 100.197V107.494C633.208 108.405 633.176 109.186 633.051 109.811C632.958 110.374 632.77 110.879 632.52 111.192C632.301 111.535 631.989 111.754 631.583 111.879C631.176 112.035 630.64 112.098 629.984 112.098H622.656C621.999 112.098 621.468 112.035 621.062 111.879C620.65 111.754 620.338 111.535 620.119 111.192C619.869 110.879 619.713 110.374 619.588 109.811C619.494 109.186 619.432 108.405 619.432 107.494V100.197C619.432 99.2905 619.494 98.5093 619.588 97.8791C619.713 97.2853 619.869 96.8166 620.119 96.4728C620.338 96.1603 620.65 95.9416 621.062 95.7853C621.468 95.6603 621.999 95.5666 622.656 95.5666H629.984C630.64 95.5666 631.176 95.6603 631.583 95.7853C631.989 95.9416 632.301 96.1603 632.52 96.4728C632.77 96.8166 632.958 97.2853 633.051 97.8791C633.176 98.5093 633.208 99.2905 633.208 100.197Z" fill="white"/>
<path d="M682.278 90.551H678.835C678.429 90.551 678.117 90.8062 677.924 91.2437L672.007 110.03C671.976 110.093 671.976 110.093 671.976 110.093L671.851 110.124C671.851 110.124 671.82 110.093 671.82 110.061L666.341 91.2437C666.184 90.8062 665.872 90.551 665.46 90.551H661.924C661.518 90.551 661.205 90.8062 661.018 91.2437L655.096 110.03C655.065 110.093 655.065 110.093 655.065 110.093L654.94 110.124C654.94 110.124 654.908 110.093 654.908 110.061L649.429 91.2437C649.273 90.8062 648.96 90.551 648.523 90.551H645.169C644.669 90.551 644.544 90.8687 644.512 91.025C644.45 91.2437 644.45 91.4937 644.575 91.775L651.059 113.478C651.122 113.634 651.216 113.822 651.278 113.947C651.747 115.577 653.283 116.733 655.002 116.733C655.789 116.733 656.539 116.515 657.164 116.077C657.351 115.983 657.476 115.858 657.632 115.765C658.07 115.353 658.544 114.603 659.012 113.447L663.648 99.0406L667.966 113.478C668.028 113.634 668.127 113.822 668.19 113.947C668.658 115.577 670.19 116.733 671.914 116.733C672.695 116.733 673.45 116.515 674.075 116.077C674.262 115.983 674.419 115.858 674.544 115.765C675.012 115.353 675.45 114.603 675.924 113.447L682.903 91.775C682.997 91.4937 683.028 91.2437 682.966 91.025C682.934 90.8375 682.778 90.551 682.278 90.551Z" fill="white"/>
<path d="M708.74 90.9312H697.339C695.964 90.9312 694.771 91.1187 693.802 91.4624C692.797 91.8374 691.984 92.4312 691.391 93.2176C690.76 93.9989 690.292 95.0301 690.01 96.2853C689.729 97.5041 689.604 99.0093 689.604 100.733V106.931C689.604 108.686 689.729 110.186 690.01 111.442C690.292 112.66 690.76 113.697 691.391 114.509C692.016 115.291 692.828 115.889 693.802 116.233C694.771 116.577 695.964 116.764 697.339 116.764H708.74C708.99 116.764 709.615 116.639 709.615 115.671V113.197C709.615 112.223 708.99 112.098 708.74 112.098H697.495C696.839 112.098 696.276 112.035 695.87 111.879C695.458 111.754 695.177 111.535 694.927 111.192C694.677 110.879 694.521 110.405 694.396 109.811C694.302 109.186 694.24 108.405 694.24 107.462V100.166C694.24 99.228 694.302 98.4468 694.396 97.8478C694.521 97.2541 694.677 96.8166 694.927 96.4728C695.177 96.1291 695.458 95.9103 695.87 95.7853C696.276 95.6291 696.839 95.5666 697.495 95.5666H708.74C708.99 95.5666 709.615 95.4364 709.615 94.4364V92.0249C709.615 91.0562 708.99 90.9312 708.74 90.9312Z" fill="white"/>
<path d="M732.976 93.8426C732.913 93.6864 732.851 93.4989 732.788 93.3739C732.283 91.7437 730.783 90.5874 729.059 90.5874C728.278 90.5874 727.528 90.8062 726.898 91.2437C726.71 91.3374 726.554 91.4624 726.429 91.5562C725.96 91.9624 725.491 92.7124 725.054 93.8426L716.314 115.546C716.221 115.827 716.189 116.108 716.252 116.296C716.283 116.483 716.439 116.764 716.939 116.764H720.387C720.793 116.764 721.106 116.514 721.262 116.108L723.049 111.629H729.908C730.252 111.629 730.564 111.473 730.721 111.192C730.908 110.942 730.939 110.598 730.846 110.28L729.715 107.494C729.559 107.119 729.215 106.869 728.809 106.869H724.929L728.934 96.7228C728.965 96.6603 728.997 96.6291 728.997 96.6291H729.122C729.122 96.6291 729.122 96.6291 729.153 96.6916L736.918 116.077C737.075 116.514 737.392 116.764 737.83 116.764H741.179C741.679 116.764 741.804 116.452 741.866 116.296C741.929 116.108 741.898 115.827 741.773 115.546L732.976 93.8426Z" fill="white"/>
<path d="M763.63 101.327H754.234C753.765 101.327 753.172 101.139 753.172 99.603V97.2853C753.172 96.7228 753.265 96.2853 753.422 95.9728C753.547 95.7853 753.734 95.5666 754.265 95.5666H767.01C767.265 95.5666 767.89 95.4676 767.89 94.4989V91.9937C767.89 91.0249 767.265 90.9312 767.01 90.9312H753.515C751.791 90.9312 750.541 91.4937 749.724 92.6499C748.911 93.7801 748.505 95.2801 748.505 97.0978V99.478C748.505 101.639 748.942 103.395 749.724 104.488C750.698 105.775 752.135 105.962 753.453 105.962H762.849C763.317 105.962 763.942 106.15 763.942 107.681V110.374C763.942 110.942 763.849 111.379 763.661 111.692C763.536 111.879 763.349 112.098 762.817 112.098H749.442C749.161 112.098 748.536 112.192 748.536 113.166V115.671C748.536 116.639 749.161 116.733 749.442 116.733H763.567C765.291 116.733 766.573 116.139 767.39 114.978C768.172 113.853 768.578 112.379 768.578 110.567V107.806C768.578 105.775 768.172 104.176 767.359 103.051C766.51 101.921 765.26 101.327 763.63 101.327Z" fill="white"/>
<path d="M793.976 111.129H782.95C782.293 111.129 781.762 111.035 781.319 110.91C780.913 110.754 780.632 110.535 780.382 110.218C780.132 109.874 779.944 109.405 779.851 108.811C779.819 108.655 779.819 108.436 779.788 108.28C779.788 108.28 779.819 106.025 779.851 106.025H793.851C794.101 106.025 794.726 105.9 794.726 104.926V102.452C794.726 101.483 794.101 101.389 793.851 101.389L777.689 101.421C776.783 101.483 775.997 101.952 775.559 102.733C775.403 102.983 775.278 103.238 775.215 103.52L775.153 107.462V107.619C775.184 109.093 775.34 110.343 775.559 111.379C775.84 112.629 776.309 113.666 776.908 114.447C777.533 115.259 778.346 115.827 779.351 116.171C780.319 116.546 781.481 116.702 782.856 116.702H793.976C794.257 116.702 794.882 116.608 794.882 115.639V112.192C794.882 111.223 794.257 111.129 793.976 111.129ZM794.007 90.8687H775.997C775.747 90.8687 775.153 90.9937 775.153 91.9937V94.4364C775.153 95.4051 775.747 95.4989 775.997 95.4989L794.007 95.5301C794.257 95.5301 794.882 95.4051 794.882 94.4364V91.9624C794.882 90.9937 794.257 90.8687 794.007 90.8687Z" fill="white"/>
</svg>
