<svg width="175" height="57" viewBox="0 0 175 57" fill="none" xmlns="http://www.w3.org/2000/svg">
<path d="M9.29641 51.6422C8.82444 51.6422 8.45181 51.4563 8.17856 51.0842C8.00467 50.8361 7.91772 50.5633 7.91772 50.2656V50.0797C8.66296 44.7468 9.27158 39.6743 9.74357 34.8623C10.3894 27.6689 11.47 19.9301 12.9853 11.6456C13.1344 10.8766 13.5194 10.2813 14.1405 9.85966C14.5876 9.562 15.0969 9.41318 15.6682 9.41318C16.637 9.41318 17.4071 9.81005 17.9784 10.6038C18.2765 11.0751 18.4256 11.5959 18.4256 12.1664L18.3883 12.6873C16.7488 17.0529 15.2459 21.6168 13.8796 26.3792C11.4452 34.8623 10.228 41.4974 10.228 46.2845C10.228 47.6985 10.3397 48.9634 10.5633 50.0797L10.6006 50.3773C10.6006 50.7494 10.4764 51.0593 10.228 51.3075C10.0044 51.5307 9.69387 51.6422 9.29641 51.6422ZM8.25309 57C4.89952 57 1.50868 56.6403 -1.9194 55.921C-2.29203 55.8466 -2.5777 55.6482 -2.77643 55.3257C-2.92548 55.1024 -3 54.8545 -3 54.5815L-2.96274 54.284C-2.76401 53.5647 -2.31686 53.2051 -1.62131 53.2051L-1.32321 53.2421C2.37814 54.7303 6.01737 55.4745 9.59451 55.4745C9.96714 55.4745 11.2216 55.4374 13.358 55.363C15.5191 55.2637 18.3759 54.408 21.9282 52.7956C26.2754 50.8114 30.3495 47.8719 34.1501 43.9777C37.9507 40.0588 41.0187 35.7551 43.3539 31.0671C45.6888 26.3545 46.8564 21.8153 46.8564 17.4497C46.8314 13.0842 45.1795 9.43797 41.9006 6.51109C38.6464 3.55939 33.3178 1.90992 25.9152 1.56266L24.2013 1.52546C20.624 1.52546 17.022 1.97193 13.3952 2.86487C9.79325 3.73302 6.71293 5.07244 4.15428 6.88317C1.59563 8.69387 0.204532 10.827 -0.0190376 13.2826C-0.118422 14.1012 -0.577979 14.5105 -1.39774 14.5105C-1.82004 14.5105 -2.1554 14.374 -2.40381 14.1012C-2.65222 13.8035 -2.77643 13.4811 -2.77643 13.1338V13.0222C-2.45349 10.4674 -0.888494 8.22258 1.91856 6.28786C4.72563 4.32834 8.27792 2.79048 12.5755 1.67428C16.873 0.558094 21.3196 0 25.9152 0C34.5599 0.0992167 40.9813 1.67428 45.1795 4.7252C49.949 8.22258 52.3338 12.8982 52.3338 18.752C52.3338 22.7702 51.2036 27.1483 48.943 31.8858C46.6824 36.5986 43.2048 41.0758 38.5098 45.3173C33.8395 49.5587 28.4366 52.7088 22.3008 54.7676C17.7052 56.2558 13.0226 57 8.25309 57ZM62.2829 51.3075C60.8668 51.3075 59.5875 50.9478 58.4449 50.2285C57.4015 49.5836 56.6439 48.6037 56.1718 47.289C56.0726 47.0411 55.8241 46.9172 55.4267 46.9172C54.905 46.9172 54.5199 47.0411 54.2714 47.289C52.0855 49.1991 50.2472 50.1541 48.7568 50.1541C48.1855 50.1541 47.4651 49.9433 46.5956 49.5216C45.7508 49.0998 45.3286 47.9713 45.3286 46.1356C45.4777 44.3747 46.223 42.8367 47.5643 41.5221C48.7568 40.4309 49.9864 39.8851 51.2532 39.8851C51.4023 39.8851 51.8619 39.9224 52.6319 39.9968C53.4022 40.0464 54.3958 40.6168 55.6129 41.7083L55.8737 41.2988C56.5694 40.1828 57.389 39.6247 58.333 39.6247C59.8732 39.6247 60.8172 40.4185 61.1649 42.0059C61.2145 42.5764 61.2519 43.1718 61.2768 43.7918C61.2768 45.776 61.6866 47.2519 62.5065 48.2194C63.2269 48.9387 64.0839 49.2984 65.0775 49.2984C67.8349 49.2984 70.8034 47.3264 73.9831 43.3826C74.2563 43.1593 74.5544 43.0476 74.8772 43.0476C75.2748 43.0476 75.5976 43.2089 75.8461 43.5314C76.1193 43.8289 76.2559 44.1265 76.2559 44.4242C76.2559 44.8212 76.0822 45.1809 75.7342 45.5032C74.0701 46.9172 71.9461 48.2689 69.3626 49.5587C66.953 50.7246 64.5931 51.3075 62.2829 51.3075ZM50.4708 46.9543C51.5887 46.2598 52.694 45.2924 53.787 44.0521C53.2407 44.1265 52.5823 44.4491 51.8123 45.0196C51.0421 45.5652 50.5949 46.2101 50.4708 46.9543ZM75.2499 53.8375C75.0016 53.8375 74.5916 53.7755 74.0202 53.6513C73.4489 53.5025 72.9893 52.7832 72.6415 51.4934C72.5423 50.9478 72.4925 50.3773 72.4925 49.782C72.4925 47.8968 73.0638 45.4661 74.2067 42.4895C75.3493 39.4883 76.8397 36.4374 78.6781 33.3368C80.5411 30.2363 82.0564 28.0164 83.224 26.6768C83.7953 26.0815 84.5033 25.7841 85.3478 25.7841C85.9939 25.7841 86.5899 26.0195 87.1365 26.4909C87.7575 27.0614 88.0681 27.7312 88.0681 28.5C88.0681 29.1698 87.832 29.7898 87.3601 30.3603C87.0371 30.7075 86.0806 32.0222 84.4908 34.3041C82.901 36.5862 81.2244 39.1162 79.4605 41.8942C77.6967 44.6724 76.4299 46.9791 75.6599 48.8145L75.5854 49.1866C75.5854 49.4099 75.7095 49.6207 75.9578 49.8191C76.2313 50.0177 76.6286 50.1167 77.1503 50.1167C77.4235 50.1167 77.6471 50.0548 77.8211 49.9308C80.6281 47.6985 85.5467 42.5391 92.5766 34.4529C95.3839 31.2284 97.2594 29.1698 98.2034 28.2768C98.9983 27.6568 99.6937 27.3466 100.29 27.3466C101.681 27.3466 102.513 28.5 102.786 30.8068L102.824 31.6254C102.824 32.8654 102.55 34.1677 102.004 35.5319C101.557 36.5737 100.973 37.7891 100.253 39.1782C98.9609 41.6089 97.8928 43.9282 97.0482 46.1356C96.9984 46.3343 96.9737 46.5077 96.9737 46.6566C96.9737 46.9791 97.0605 47.2149 97.2344 47.3634C97.4331 47.5123 97.6318 47.5867 97.8307 47.5867C98.1288 47.5867 99.1969 46.8303 101.035 45.3173C102.228 44.2754 103.47 43.2957 104.761 42.378C105.73 41.7083 106.624 41.3732 107.444 41.3732C107.543 41.3732 107.829 41.3981 108.301 41.4477C108.798 41.4974 109.332 42.1174 109.904 43.3082C110.301 44.4986 110.587 45.9746 110.761 47.7355C110.885 48.8023 111.021 49.7325 111.17 50.5262C111.344 51.295 111.555 51.7291 111.804 51.8284C112.052 51.9028 112.313 51.9399 112.586 51.9399C113.555 51.9399 114.884 51.5058 116.573 50.6377C118.287 49.7446 120.001 48.5791 121.715 47.1404C123.429 45.6769 124.535 44.3871 125.032 43.2708C125.255 43.122 125.504 43.0476 125.777 43.0476C126.274 43.0476 126.659 43.2708 126.932 43.7173C127.056 43.9406 127.118 44.1763 127.118 44.4242C127.118 44.4986 127.106 44.6475 127.081 44.8707C127.056 45.0691 126.907 45.2799 126.634 45.5032C125.566 46.3962 124.051 47.5123 122.088 48.8519C120.126 50.1912 118.113 51.357 116.052 52.3491C114.188 53.267 112.599 53.7258 111.282 53.7258H110.91C108.55 53.453 106.736 51.4563 105.469 47.7355C105.42 47.6116 105.233 47.4752 104.91 47.3264C104.587 47.1775 104.19 47.1031 103.718 47.1031C103.42 47.1031 103.134 47.19 102.861 47.3634C102.116 47.8597 101.321 48.4178 100.476 49.0378C98.8118 50.2531 97.483 51.1711 96.4891 51.7911C95.9178 52.1383 95.421 52.312 94.9987 52.312C94.6757 52.312 94.4025 52.2003 94.1789 51.9773C93.7566 51.5554 93.5455 50.9229 93.5455 50.0797V49.6702C93.7442 47.0162 94.589 42.8368 96.0793 37.1318C96.1289 36.9583 96.1539 36.797 96.1539 36.6482C96.1539 36.2265 95.9427 36.0157 95.5205 36.0157C95.0484 36.0157 94.5765 36.2512 94.1044 36.7226L90.9745 40.2943C88.7388 42.9485 86.4533 45.4785 84.1181 47.8844C81.8079 50.2905 79.6221 52.0639 77.5601 53.2051C76.7405 53.6267 75.9703 53.8375 75.2499 53.8375ZM140.831 51.3075C139.415 51.3075 138.136 50.9478 136.993 50.2285C135.949 49.5836 135.192 48.6037 134.72 47.289C134.621 47.0411 134.372 46.9172 133.975 46.9172C133.453 46.9172 133.068 47.0411 132.82 47.289C130.634 49.1991 128.795 50.1541 127.305 50.1541C126.733 50.1541 126.013 49.9433 125.144 49.5216C124.299 49.0998 123.877 47.9713 123.877 46.1356C124.026 44.3747 124.771 42.8367 126.112 41.5221C127.305 40.4309 128.534 39.8851 129.801 39.8851C129.95 39.8851 130.41 39.9224 131.18 39.9968C131.95 40.0464 132.944 40.6168 134.161 41.7083L134.422 41.2988C135.117 40.1828 135.937 39.6247 136.881 39.6247C138.421 39.6247 139.365 40.4185 139.713 42.0059C139.763 42.5764 139.8 43.1718 139.825 43.7918C139.825 45.776 140.235 47.2519 141.055 48.2194C141.775 48.9387 142.632 49.2984 143.625 49.2984C146.383 49.2984 149.351 47.3264 152.531 43.3826C152.804 43.1593 153.102 43.0476 153.425 43.0476C153.823 43.0476 154.146 43.2089 154.394 43.5314C154.667 43.8289 154.804 44.1265 154.804 44.4242C154.804 44.8212 154.63 45.1809 154.282 45.5032C152.618 46.9172 150.494 48.2689 147.911 49.5587C145.501 50.7246 143.141 51.3075 140.831 51.3075ZM129.019 46.9543C130.137 46.2598 131.242 45.2924 132.335 44.0521C131.789 44.1265 131.13 44.4491 130.36 45.0196C129.59 45.5652 129.143 46.2101 129.019 46.9543ZM150.519 55.6233C149.898 55.6233 149.587 55.2512 149.587 54.507C149.587 54.1847 149.637 53.8002 149.736 53.3537C150.68 49.8813 151.513 46.5575 152.233 43.3826C152.978 40.2077 153.388 37.5288 153.463 35.3459C153.711 34.6017 154.158 34.0562 154.804 33.7089C155.226 33.4857 155.661 33.3739 156.108 33.3739C157.201 33.3739 158.009 33.8578 158.53 34.825C158.754 35.2466 158.866 35.6932 158.866 36.1646C158.866 36.4125 158.828 36.6731 158.754 36.9458C157.561 40.6913 156.27 44.2878 154.878 47.7355C154.804 47.9093 154.767 48.0581 154.767 48.1821C154.791 48.2814 154.841 48.3309 154.916 48.3309C155.115 48.3309 155.313 48.2194 155.512 47.9961C160.555 41.7207 164.107 38.5828 166.169 38.5828C167.212 38.5828 167.982 39.4386 168.479 41.1502C169.001 42.8368 169.845 43.6803 171.013 43.6803C171.584 43.6803 172.292 43.519 173.137 43.1964C173.311 43.1469 173.472 43.122 173.621 43.122C173.82 43.122 174.044 43.1718 174.292 43.2708C174.764 43.4941 175 43.8911 175 44.4616C175 45.0816 174.714 45.5156 174.143 45.7638C172.354 46.4333 170.889 46.7683 169.746 46.7683C169.622 46.7683 169.224 46.7559 168.554 46.731C167.908 46.6815 167.249 46.4087 166.579 45.9126C165.908 45.4163 165.386 44.9078 165.014 44.3871C164.492 43.7422 164.07 43.4197 163.747 43.4197C163.474 43.4197 163.151 43.618 162.778 44.015C162.256 44.5606 161.598 45.2799 160.803 46.173C156.953 50.464 154.208 53.3041 152.568 54.6932C151.773 55.3132 151.09 55.6233 150.519 55.6233Z" fill="white"/>
</svg>
